<svg version="1.1" xmlns="http://www.w3.org/2000/svg" x="0" y="0" viewBox="0 0 395.74 413.22" xml:space="preserve">
  <style>
    .st0{fill:#f2ab8f}.st1{fill:#fff}.st2{fill:#ce8d76}.st3{fill:#fffed7}.st4{fill:#4a4e60}.st5{fill:#30323d}.st6{fill:#a5a5a5}.st8{fill:#6d6d6d}.st9{fill:#efdcf4}.st10{fill:#262626}
  </style>
  <g class="body0">
    <path class="st0" d="M357.32 86.4s1.62-43.65 5.25-43.65c3.64 0 4.85 10.1 4.45 17.38-.4 7.27 27.89-12.53 23.44 4.04 0 0 8.49 1.21 2.02 10.91 0 0 8.08 6.06-1.21 10.51 0 0 8.08 4.04-4.04 8.89-12.13 4.85-18.59 10.1-18.59 10.1L357.32 86.4z"/>
    <path class="st10" d="M215.28 185.05l84.53 12.04s49.55-61.89 76.23-95.84L354.4 82.32s-59.41 61.38-72.51 70.9l-53.94-15.14-12.67 46.97z"/>
    <path class="st2" d="M188.39 128.32s-.08.31-.26.79l-.22-39.19h-32.95l2.2 39.68c-3.06-.12-31.04 3.94-45.26 10.33-.51 4.59 3.85 23.37 1.59 27.63 6.63 12.29 19.54 1.58 27.25 13.3.65 1 3.28 4.17 3.37 4.43.4.41.76.84 1.17 1.24.91.84 3.88 2.74 4.44 3.15.74.42 1.46.86 2.21 1.25.43.21.79.39 1.1.54.2.05.4.11.62.17 1.81.55 3.63 1.03 5.48 1.44 1.21.27 2.43.46 3.65.67.32.02.66.05 1.06.08 5.01.17 10.03.16 15.03-.32 1.07-.1 7.72-1.1 5.88-.7 1.03-.19 2.06-.37 3.08-.58 5-1.07 9.96-2.29 14.89-3.64 2.26-6.24 4.48-12.49 6.52-18.81 2.74-8.51 17.73-7.82 19.57-16.58.77-3.64 2.31-15.09-9.03-18.6-10.18-1.57-31.39-6.28-31.39-6.28z"/>
    <path class="st1" d="M225.37 255.98l9.59-23.41s14.29-12.33 16.17-25.68c1.65-11.74-11.96-72-28.7-71.47-2.73 23.38-28.96 35.56-48.98 35.56-21.05 0-54.65-8.72-54.64-31.98 0-.66.02-1.31.05-1.95-6.4 3.41-13.88 4.21-22.04 11.68-25.51 23.38 16.5 39.13 16.5 39.13s8.16 36.98 31.17 66.72l-5.94 67.72s-20.11 16.73 40.82 23.82 50.37-30.64 50.37-30.64 4.34-45.23-4.37-59.5zM145.92 130.32a4.247 4.247 0 004.3 4.2 4.247 4.247 0 004.2-4.3 4.247 4.247 0 00-4.3-4.2 4.247 4.247 0 00-4.2 4.3z"/>
    <path class="st1" d="M151.32 137.7a4.247 4.247 0 004.3 4.2 4.247 4.247 0 004.2-4.3 4.247 4.247 0 00-4.3-4.2 4.247 4.247 0 00-4.2 4.3zM158.82 143.46a4.247 4.247 0 004.3 4.2 4.247 4.247 0 004.2-4.3 4.247 4.247 0 00-4.3-4.2 4.26 4.26 0 00-4.2 4.3zM167.35 145.49a4.247 4.247 0 004.3 4.2 4.247 4.247 0 004.2-4.3 4.247 4.247 0 00-4.3-4.2 4.247 4.247 0 00-4.2 4.3z"/>
    <path class="st1" d="M175.83 143.8a4.247 4.247 0 004.3 4.2 4.247 4.247 0 004.2-4.3 4.247 4.247 0 00-4.3-4.2 4.26 4.26 0 00-4.2 4.3zM184.28 138.92a4.247 4.247 0 004.3 4.2 4.247 4.247 0 004.2-4.3c-.03-2.35-1.95-4.23-4.3-4.2s-4.23 1.96-4.2 4.3zM189.5 130.89a4.247 4.247 0 004.3 4.2 4.247 4.247 0 004.2-4.3 4.247 4.247 0 00-4.3-4.2 4.266 4.266 0 00-4.2 4.3z"/>
    <path class="st10" d="M116.07 202.33s13.72 37.06 27.37 55.59c0 0-32.18 49.74-37.06 66.32 0 0 97.73 66.32 155.07-8.78l-30.04-62.57 2.73-12.53s20.36-24.29 20.48-42.91c.12-18.62-13.65-70.22-43.89-65.35l-22.23 81.6-66.52-76.72s-22.43-.97-32.19 19.51c-9.74 20.49 26.28 45.84 26.28 45.84z"/>
    <path class="st0" d="M35.72 259.75s29.13 73.4 71.54 91.24l3.14-20.65s-22.25-21.28-40.27-57.86c-18.03-36.57-34.41-12.73-34.41-12.73z"/>
    <path class="st0" d="M98.65 346.36s22.58 21.82 19.38-20.71c0 0 31.75-4.61 3.77-8.72 0 0 31.62-10.33-1.8-6.38 0 0 26.27-26.39-11.7-1.09 0 0-7.64 5.87-7.16 24.51l-2.49 12.39z"/>
    <path class="st10" d="M96.58 147.36c-5.34 2.13-71.98 111.66-71.98 111.66s33.34 63.44 57.69 78.44l17.51-22.95s-28.59-46.88-34.11-62.11l58.72-60.01c-.01 0-22.5-47.17-27.83-45.03z"/>
  </g>
  <g class="body1">
    <path class="st0" d="M306.97 304.7c-4.98-4.86-10.37-5.3-17.38-5.22-8.48-18.69-31.27-69.42-31.27-69.42l-20.51 19s21.43 40.19 35.55 60.79l-.27.34c-1.58 6.34 2.47 12.51 4.62 16.55 2.15 4.04 2.69 6.17 4.73 10.5 1.74 3.71 4.68 9.78 6.79 7.78 2.11-2.01-3.92-13.69-2.85-14.46 1.38-1 14.78 24.05 17.62 17.65.92-2.08-9.03-16.11-9.21-19.16-.18-3.05 15.82 19.75 19.55 15.8 2.25-2.39-15.28-21.72-12.26-20.11 3.88 2.06 14.62 12.4 17.03 12.67 2.42.28 5.39.91-3.54-9.42-6.55-7.57-12.41-12.49-12.19-14.93.28-3.02 4.82.64 4.82.64 11.74 6.26 12.18.08 12.49-1.88.32-1.94-8.5-2.02-13.72-7.12z"/>
    <path class="st1" d="M232.64 241.47l8.93 18.33c8.48-6.76 16.84-13.64 24.8-20.97l-12.12-24.46-35.83-77.77c-12.32-1.23-36.14 2.32-14.16 45.08l28.38 59.79z"/>
    <path class="st2" d="M184.79 126.7s-.07.27-.23.69l-.19-34.17h-28.72l1.91 34.6c-2.67-.1-27.07 3.44-39.46 9.01-.44 4 3.35 20.37 1.39 24.09 5.78 10.72 17.04 1.38 23.76 11.6.57.87 2.85 3.64 2.93 3.86.35.35.66.74 1.02 1.08.79.73 3.38 2.39 3.87 2.75.64.36 1.27.75 1.93 1.09.38.18.69.34.96.47.17.05.35.1.54.15 1.58.48 3.17.9 4.78 1.26 1.05.23 2.12.4 3.18.58.28.02.57.04.93.07 4.37.15 8.75.14 13.1-.28.93-.09 6.73-.96 5.13-.61.89-.17 1.79-.32 2.68-.5a221.2 221.2 0 0012.98-3.18c1.97-5.44 3.91-10.89 5.68-16.4 2.39-7.42 15.46-6.82 17.07-14.45.67-3.18 2.01-13.16-7.88-16.22-8.86-1.39-27.36-5.49-27.36-5.49z"/>
    <path class="st1" d="M222.31 235.31l3.08-17.73s12.46-10.75 14.1-22.39c1.44-10.24-10.42-62.78-25.02-62.31-2.38 20.38-25.25 31-42.7 31-18.35 0-47.64-7.6-47.64-27.88 0-.58.02-1.14.05-1.7-5.58 2.98-12.1 3.67-19.21 10.18-22.24 20.39 14.39 34.12 14.39 34.12s7.11 32.24 27.18 58.17l-30.13 51.39s7.41 22.24 60.54 28.42c53.12 6.18 67.95-32.12 67.95-32.12s-15-36.7-22.59-49.15zM147.77 128.44c.02 2.05 1.7 3.69 3.75 3.66 2.05-.02 3.69-1.7 3.66-3.75s-1.7-3.69-3.75-3.66c-2.05.02-3.69 1.7-3.66 3.75z"/>
    <path class="st1" d="M152.47 134.87c.02 2.05 1.7 3.69 3.75 3.66s3.69-1.7 3.66-3.75-1.7-3.69-3.75-3.66a3.72 3.72 0 00-3.66 3.75zM159.02 139.9c.02 2.05 1.7 3.69 3.75 3.66 2.05-.02 3.69-1.7 3.66-3.75a3.694 3.694 0 00-3.75-3.66c-2.05.02-3.69 1.7-3.66 3.75z"/>
    <path class="st1" d="M166.45 141.66c.02 2.05 1.7 3.69 3.75 3.66s3.69-1.7 3.66-3.75-1.7-3.69-3.75-3.66-3.68 1.71-3.66 3.75z"/>
    <path class="st1" d="M173.84 140.19c.02 2.05 1.7 3.69 3.75 3.66 2.05-.02 3.69-1.7 3.66-3.75-.02-2.05-1.7-3.69-3.75-3.66s-3.68 1.7-3.66 3.75zM181.21 135.94c.02 2.05 1.7 3.69 3.75 3.66s3.69-1.7 3.66-3.75-1.7-3.69-3.75-3.66c-2.04.02-3.68 1.7-3.66 3.75zM185.76 128.94c.02 2.05 1.7 3.69 3.75 3.66 2.05-.02 3.69-1.7 3.66-3.75a3.694 3.694 0 00-3.75-3.66c-2.04.02-3.68 1.7-3.66 3.75z"/>
    <path class="st0" d="M79.34 231.33S41.49 348.31 46.3 352.99c0 0 .53 3.61 5.18 4.16 0 0 .69 4.84 6.25 3.61 0 0 .46 3.48 2.05 5.23 2.46 2.72 8.11.86 8.17-11.49 0 0 1.47 3.83 5.27 5.32 5.17 2.02 2.73-5.4 2.73-5.4s-.26-7-1.29-16.49c-1.03-9.49-4.07-11.47-4.07-11.47l39.64-106.24-30.89 11.11z"/>
    <path class="st1" d="M104.51 244.9l17.23-53.68c16.21-45.51-10.99-40.13-23.1-37.26l-22.36 76.47-1.53 5.2c10 2.84 19.89 6.02 29.76 9.27z"/>
  </g>
  <g class="body2">
    <path class="st2" d="M188 127.47s-.08.31-.26.79l-.22-39.04H154.7l2.19 39.53c-3.05-.12-30.92 3.93-45.09 10.29-.51 4.57 3.83 23.28 1.59 27.52 6.6 12.24 19.47 1.57 27.14 13.25.65.99 3.26 4.16 3.35 4.41.39.4.76.84 1.16 1.23.91.83 3.86 2.73 4.42 3.14.74.41 1.45.86 2.2 1.25.43.21.78.38 1.09.54.19.05.39.11.62.17 1.8.55 3.62 1.03 5.46 1.44 1.2.27 2.42.46 3.63.67.32.02.65.05 1.06.08 4.99.17 9.99.16 14.97-.32 1.06-.1 7.69-1.09 5.86-.7 1.02-.19 2.05-.36 3.07-.57 4.98-1.06 9.93-2.28 14.83-3.63 2.25-6.21 4.47-12.44 6.49-18.74 2.73-8.48 17.66-7.79 19.5-16.52.76-3.63 2.3-15.03-9-18.53-10.11-1.57-31.24-6.26-31.24-6.26z"/>
    <path class="st3" d="M230.86 251.57l3.52-20.25s14.24-12.28 16.1-25.58c1.64-11.7-11.91-71.72-28.58-71.2-2.72 23.29-28.85 35.42-48.78 35.42-20.97 0-54.43-8.69-54.43-31.86 0-.66.02-1.3.05-1.94-6.38 3.4-13.83 4.19-21.95 11.64-25.41 23.29 16.44 38.98 16.44 38.98s8.13 36.84 31.05 66.46l-34.42 58.71s8.47 25.41 69.17 32.47c60.7 7.06 81.52-36.7 81.52-36.7s-21.01-41.93-29.69-56.15z"/>
    <path class="st1" d="M145.7 129.46a4.24 4.24 0 004.28 4.19 4.24 4.24 0 004.19-4.28 4.24 4.24 0 00-4.28-4.19 4.227 4.227 0 00-4.19 4.28zM151.07 136.81a4.24 4.24 0 004.28 4.19 4.24 4.24 0 004.19-4.28 4.24 4.24 0 00-4.28-4.19c-2.34.02-4.21 1.94-4.19 4.28zM158.55 142.55a4.24 4.24 0 004.28 4.19 4.24 4.24 0 004.19-4.28 4.24 4.24 0 00-4.28-4.19 4.227 4.227 0 00-4.19 4.28zM167.04 144.57a4.24 4.24 0 004.28 4.19 4.24 4.24 0 004.19-4.28 4.24 4.24 0 00-4.28-4.19c-2.34.02-4.21 1.94-4.19 4.28z"/>
    <path class="st1" d="M175.49 142.89a4.24 4.24 0 004.28 4.19 4.24 4.24 0 004.19-4.28 4.24 4.24 0 00-4.28-4.19c-2.34.02-4.21 1.94-4.19 4.28zM183.91 138.03a4.24 4.24 0 004.28 4.19 4.24 4.24 0 004.19-4.28 4.24 4.24 0 00-4.28-4.19 4.227 4.227 0 00-4.19 4.28zM189.11 130.03a4.24 4.24 0 004.28 4.19 4.24 4.24 0 004.19-4.28 4.24 4.24 0 00-4.28-4.19c-2.34.02-4.21 1.94-4.19 4.28z"/>
    <g>
      <path class="st0" d="M29.52 241.45s34.77 69.01 78.03 84.15l1.86-20.72s-25.71-18.59-43.58-55.07c-23.64-48.28-36.31-8.36-36.31-8.36z"/>
      <path class="st0" d="M98.71 321.52s23.79 20.31 18.01-21.78c0 0 31.29-6.53 3.22-8.9 0 0 30.81-12.21-2.18-6.23 0 0 24.5-27.84-11.7-.37 0 0-7.24 6.3-5.62 24.8l-1.73 12.48z"/>
      <path class="st3" d="M65.84 249.81l36.55-48.32c35.91-41.93 4.68-47.3-9.4-49.2L34.1 229.67c9.5 7.1 22.54 12.64 31.74 20.14z"/>
    </g>
    <g>
      <path class="st0" d="M319.3 209.64s-16.56 75.48-54.71 100.88l-6.95-19.61s20.3-24.39 28.55-64.16c10.94-52.64 33.11-17.11 33.11-17.11z"/>
      <path class="st0" d="M272.15 304.37s-18 25.58-22.85-16.63c0 0-31.93 1.44-5.33-7.82 0 0-32.88-4.18.56-6.58 0 0-30.65-20.89 11.24-3.27 0 0 8.58 4.31 11.6 22.63l4.78 11.67z"/>
      <path class="st3" d="M286.2 226.76l-47.4-37.74c-27.15-15.04-25.01-47.52-11.83-52.85l84.97 63.19c-7.43 9.25-18.69 17.85-25.74 27.4z"/>
    </g>
  </g>
  <g class="body3">
    <path class="st0" d="M323.47 326.38c-5.54-5.4-11.53-5.9-19.33-5.8-9.43-20.78-34.77-77.19-34.77-77.19l-22.81 21.13s23.83 44.69 39.52 67.6c-.18.23-.29.38-.29.38-1.76 7.06 2.75 13.91 5.14 18.4 2.39 4.49 2.99 6.86 5.26 11.68 1.94 4.12 5.2 10.88 7.55 8.65 2.35-2.23-4.36-15.22-3.17-16.08 1.53-1.11 16.44 26.74 19.59 19.62 1.03-2.31-10.05-17.91-10.25-21.31-.2-3.39 17.6 21.96 21.74 17.57 2.5-2.65-17-24.15-13.63-22.36 4.32 2.29 16.25 13.78 18.94 14.09 2.69.31 6 1.02-3.94-10.47-7.28-8.42-13.8-13.89-13.55-16.6.31-3.36 5.36.72 5.36.72 13.06 6.96 13.54.09 13.89-2.09.37-2.19-9.44-2.28-15.25-7.94z"/>
    <path class="st2" d="M187.62 128.44s-.08.3-.25.77l-.21-37.99h-31.94l2.13 38.47c-2.97-.11-30.1 3.82-43.88 10.01-.49 4.45 3.73 22.65 1.55 26.79 6.42 11.92 18.95 1.53 26.42 12.89.63.97 3.17 4.04 3.26 4.29.38.39.74.82 1.13 1.2.88.81 3.76 2.66 4.31 3.05.72.4 1.42.83 2.14 1.22.42.2.76.37 1.06.53.19.05.38.11.6.17 1.75.54 3.52 1 5.31 1.4 1.17.26 2.35.44 3.53.65.31.02.64.05 1.03.08 4.86.16 9.72.16 14.57-.31 1.03-.1 7.49-1.07 5.7-.68.99-.19 1.99-.35 2.98-.56 4.85-1.03 9.66-2.22 14.43-3.53 2.19-6.05 4.35-12.11 6.32-18.23 2.66-8.25 17.19-7.58 18.98-16.07.74-3.53 2.24-14.63-8.76-18.03-9.85-1.55-30.41-6.12-30.41-6.12z"/>
    <path class="st1" d="M223.47 252.2l9.29-22.69s13.86-11.96 15.67-24.9c1.6-11.39-11.59-69.8-27.82-69.29-2.64 22.66-28.07 34.47-47.48 34.47-20.41 0-52.98-8.45-52.97-31 0-.64.02-1.27.05-1.89-6.21 3.31-13.46 4.08-21.36 11.33-24.73 22.67 16 37.94 16 37.94s7.91 35.85 30.22 64.68l-5.76 65.65s-19.5 16.22 39.57 23.09c59.07 6.87 48.83-29.71 48.83-29.71s4.2-43.84-4.24-57.68zM146.45 130.38c.03 2.28 1.89 4.1 4.17 4.07 2.28-.03 4.1-1.89 4.07-4.17a4.114 4.114 0 00-4.17-4.07 4.12 4.12 0 00-4.07 4.17z"/>
    <path class="st1" d="M151.68 137.54c.03 2.28 1.89 4.1 4.17 4.07 2.28-.03 4.1-1.89 4.07-4.17a4.114 4.114 0 00-4.17-4.07c-2.27.02-4.1 1.89-4.07 4.17zM158.96 143.12c.03 2.28 1.89 4.1 4.17 4.07 2.28-.03 4.1-1.89 4.07-4.17a4.114 4.114 0 00-4.17-4.07c-2.28.03-4.1 1.89-4.07 4.17z"/>
    <path class="st1" d="M167.22 145.09c.03 2.28 1.89 4.1 4.17 4.07 2.28-.03 4.1-1.89 4.07-4.17a4.114 4.114 0 00-4.17-4.07 4.12 4.12 0 00-4.07 4.17z"/>
    <path class="st1" d="M175.44 143.45c.03 2.28 1.89 4.1 4.17 4.07 2.28-.03 4.1-1.89 4.07-4.17a4.114 4.114 0 00-4.17-4.07 4.127 4.127 0 00-4.07 4.17zM183.63 138.72c.03 2.28 1.89 4.1 4.17 4.07 2.28-.03 4.1-1.89 4.07-4.17a4.114 4.114 0 00-4.17-4.07 4.127 4.127 0 00-4.07 4.17zM188.7 130.94c.03 2.28 1.89 4.1 4.17 4.07 2.28-.03 4.1-1.89 4.07-4.17a4.114 4.114 0 00-4.17-4.07c-2.27.02-4.1 1.89-4.07 4.17z"/>
    <path class="st4" d="M117.51 200.19s13.3 35.93 26.53 53.9c0 0-31.2 48.22-35.93 64.3 0 0 34.98 37.82 78.48 31.2l5.67-6.62 8.51 7.56s49.17-18.91 57.68-40.66l-29.12-60.65 2.65-12.15 45.38 86.04 27.42-14.18-52.95-113.46s-13.24-68.08-42.55-63.35l-16.07 134.26-69.97-129.54s-21.75-.95-31.2 18.91 25.47 44.44 25.47 44.44z"/>
    <path class="st1" d="M277.9 322.76l2.53 4.86 25.23-12.43-2.61-5.33z"/>
    <path class="st5" d="M123.24 136.85l-12.92 2.52 8.83 39.08 22.06 7.56-5.05 22.07 57.05 58.3zM209.28 132.12l-16.07 134.26 25.53-63.98-9.46-20.17 13.24-6.3-6.3-44.13zM190.08 279.86a3.841 3.841 0 007.68 0 3.841 3.841 0 00-7.68 0zM189.37 315.02a3.841 3.841 0 007.68 0 3.841 3.841 0 00-7.68 0z"/>
    <g>
      <path class="st0" d="M98.62 287.58c-4.27 7.32-7.91 15.05-11.47 22.77 9.84 10.07 21.38 18.95 34.1 23.4l1.74-19.35c.01.02-11.14-9.45-24.37-26.82z"/>
      <path class="st0" d="M113.01 329.95s22.21 18.97 16.81-20.34c0 0 29.22-6.1 3.01-8.31 0 0 28.77-11.4-2.03-5.82 0 0 22.88-26-10.93-.35 0 0-6.76 5.89-5.25 23.16l-1.61 11.66z"/>
      <path class="st4" d="M93.93 153.23l-50.6 105s30.52 51.85 53.98 64.39l14.94-22.3s-26.45-34.1-32.44-47.92l39.14-55.79-25.02-43.38z"/>
      <path class="st1" d="M111.69 301.27l2.93 3.01-10.97 23.2-6.34-4.86 14.38-21.35"/>
    </g>
  </g>
  <g class="body4">
    <path class="st0" d="M304.4 41.58c2.18 6.78 4.51 15.19 6.76 23.91-7.25 1.49-14.46 3.11-21.67 4.8-1.67-10.97-3.13-20.77-3.93-26.45-2.88 1.26-9.06 2.52-15.27-5.5-5.22-6.74-2.23-10.91.85-13.13-.71-2.15-1.54-5.47-2.49-10.48C266.67 4.31 287.88-1.99 298.22.55c10.34 2.54 12.53 25.97 10.62 33.73-1.12 4.59-3.04 6.5-4.44 7.3z"/>
    <path class="st3" d="M314.25 60.88l-3.51-15.49-29.22 5.47 2.49 15.38c10.07-1.81 20.16-3.59 30.24-5.36z"/>
    <path class="st6" d="M279.39 60.39L293 117.41l-78.7 11.36c-17.07 7.36 2.73 42.97 2.73 42.97l5.46-1.36s105.78-10.59 112.24-29.04c6.46-18.44-20.29-86.36-20.29-86.36l-35.05 5.41z"/>
    <g>
      <path class="st0" d="M32.18 46.33c-2.18 6.78-4.51 15.19-6.76 23.91 7.25 1.49 14.46 3.11 21.67 4.8 1.67-10.97 3.13-20.77 3.93-26.45 2.88 1.26 9.06 2.52 15.27-5.5 5.22-6.74 2.23-10.91-.85-13.13.71-2.15 1.54-5.47 2.49-10.48C69.91 9.07 48.69 2.77 38.36 5.31 28.02 7.85 25.83 31.29 27.73 39.04c1.13 4.58 3.06 6.49 4.45 7.29z"/>
      <path class="st3" d="M22.33 65.63l3.51-15.49 29.22 5.47-2.49 15.38a7332.57 7332.57 0 00-30.24-5.36z"/>
      <path class="st6" d="M57.19 65.14l-13.61 57.02 88.18 11.65c17.07 7.36-12.21 42.69-12.21 42.69l-5.46-1.36S11.29 164.34 1.85 146.1c-9.44-18.23 20.29-86.36 20.29-86.36l35.05 5.4z"/>
    </g>
    <g>
      <path class="st2" d="M186.83 128.92s-.08.29-.25.76l-.21-37.65h-31.65l2.11 38.12c-2.94-.11-29.82 3.79-43.48 9.92-.49 4.41 3.7 22.45 1.53 26.55 6.37 11.81 18.78 1.52 26.18 12.78.63.96 3.15 4.01 3.23 4.25.38.39.73.81 1.12 1.19.88.8 3.72 2.63 4.27 3.03.71.4 1.4.83 2.13 1.2.42.2.76.37 1.05.52.19.05.38.1.6.17 1.74.53 3.49.99 5.26 1.39 1.16.26 2.33.44 3.5.64.31.02.63.05 1.02.08 4.81.16 9.64.15 14.44-.3 1.02-.1 8.32 10.58 6.55 10.96.99-.18 1.07-11.98 2.05-12.18 4.8-1.03 9.57-2.2 14.3-3.5 2.17-5.99 4.31-12 6.26-18.07 2.63-8.18 17.03-7.52 18.8-15.93.74-3.5 2.21-14.5-8.68-17.87-9.76-1.54-30.13-6.06-30.13-6.06z"/>
      <path fill="#e0ddb3" d="M158.31 186.28l5.62-12.81 17.18 15.93 9.37-18.11 14.99 8.74-3.44 44.04-18.74 19.36z"/>
      <path class="st6" d="M110.6 171.87s21.16 63.76 34.28 81.56c0 0-33.94 42.14-38.63 58.06 0 0 37.69 43.13 80.79 36.57l5.62-6.56 8.43 7.5s51.39-18.48 59.83-40.02l-31.53-60.37 2.62-12.04 19.68-41.23s-13.12-67.46-42.16-62.77l-19.99 95.88-57.78-94.63s-40.79-8.9-44.1 12.64c-1.96 12.78 22.94 25.41 22.94 25.41z"/>
      <path class="st8" d="M190.5 278.96c0 2.1 1.7 3.81 3.81 3.81 2.1 0 3.81-1.7 3.81-3.81s-1.7-3.81-3.81-3.81c-2.11 0-3.81 1.71-3.81 3.81zM189.79 313.8c0 2.1 1.7 3.81 3.81 3.81 2.1 0 3.81-1.7 3.81-3.81s-1.7-3.81-3.81-3.81c-2.1 0-3.81 1.71-3.81 3.81z"/>
      <path class="st3" d="M139.26 130.37l-6.87 1.88-9.06 35.91 22.17-.93-5.62 6.87 41.23 15.3zM203.19 129.16l7.12.31 16.77 33.02-21.83 3.99 7 5.46-31.14 17.46z"/>
    </g>
  </g>
  <g class="body5">
    <path class="st0" d="M335.16 67.99l-20.37 87.17-96.28-16.44c-8.86 9.33-4.61 45.29 50.64 47.84 0 0 64.67 18.58 73.26 5.43 8.59-13.15 10.35-118.72 10.35-118.72l-17.6-5.28z"/>
    <path class="st0" d="M358.25 58.1c-4.75-3.31-14.19-5.31-21.41-4.52 0-8.98-.05-21.64-1.34-22.82-2.01-1.84-7.03-1-6.86 4.02.11 3.4-.62 16.3-1.1 24.28-.13.47-.23.95-.24 1.48-.03 2.32 0 2.22 0 2.47-.03.42-.05.77-.07 1.1-3.48.92-7.52 3.58-5.2 11.3 2.76 9.2 8.64 10.19 11.61 10.06-1.23 5.29-3.28 14.43-5.54 24.69 6.94.96 13.87 1.98 20.77 3.14.98-8.47 1.79-16.69 2.18-23.42 1.5-.23 3.86-1.26 6.41-4.92 4.32-6.2 9.05-21.1.79-26.86zM100.58 376.87c-3.22-10.72-7.14-12.36-7.14-12.36l22.01-125.27c12.05-67.01-3.32-72.33-10-83.89-10.95-18.93-17.53 3.92-17.53 3.92S65.56 396.6 71.11 400.3c0 0 1.38 4.05 6.86 3.7 0 0 1.83 5.43 7.98 2.82 0 0 1.28 3.92 3.48 5.59 3.42 2.61 9.54-.74 6.96-15 0 0 2.51 4.1 7.22 5.01 6.39 1.23 1.99-6.81 1.99-6.81s-1.8-8.02-5.02-18.74z"/>
    <path class="st2" d="M189.25 127.18s-.08.31-.27.81l-.22-40.07h-33.69l2.25 40.57c-3.13-.12-31.74 4.03-46.28 10.56-.52 4.7 3.93 23.89 1.63 28.25 6.78 12.57 19.98 1.61 27.86 13.6.67 1.02 3.35 4.27 3.44 4.53.41.42.78.86 1.19 1.27.93.86 3.96 2.8 4.54 3.22.76.42 1.49.88 2.26 1.28.44.21.8.39 1.12.56.2.05.4.11.64.18 1.85.57 3.71 1.06 5.6 1.47 1.23.27 2.48.47 3.73.68.33.02.67.05 1.09.08 5.12.17 10.26.16 15.37-.32 1.09-.1 7.9-1.12 6.02-.72 1.05-.2 2.1-.37 3.15-.59 5.11-1.09 10.19-2.34 15.22-3.73 2.31-6.38 4.58-12.77 6.66-19.23 2.8-8.7 18.13-8 20.01-16.95.78-3.72 2.36-15.43-9.24-19.02-10.39-1.62-32.08-6.43-32.08-6.43z"/>
    <path class="st9" d="M233.24 254.56l3.62-20.79s14.62-12.61 16.53-26.26c1.69-12.01-12.22-73.62-29.34-73.08-2.79 23.9-29.61 36.36-50.08 36.36-21.53 0-55.88-8.92-55.87-32.7 0-.68.02-1.34.06-1.99-6.55 3.49-14.19 4.3-22.53 11.95-26.08 23.91 16.88 40.01 16.88 40.01s8.34 37.81 31.87 68.22l-35.33 60.27s8.69 26.08 71 33.33c62.3 7.25 83.68-37.67 83.68-37.67s-21.57-43.05-30.49-57.65z"/>
    <path class="st1" d="M145.82 129.22c.03 2.4 2 4.32 4.4 4.3 2.4-.03 4.32-1.99 4.3-4.4a4.354 4.354 0 00-4.4-4.3c-2.4.03-4.32 2-4.3 4.4zM151.34 136.77c.03 2.4 1.99 4.32 4.4 4.3 2.4-.03 4.32-1.99 4.3-4.4-.03-2.4-2-4.32-4.4-4.3-2.4.03-4.32 2-4.3 4.4zM159.02 142.66c.03 2.4 2 4.32 4.4 4.3 2.4-.03 4.32-1.99 4.3-4.4-.03-2.4-2-4.32-4.4-4.3-2.41.03-4.33 2-4.3 4.4z"/>
    <path class="st1" d="M167.74 144.73c.03 2.4 2 4.32 4.4 4.3 2.4-.03 4.32-2 4.3-4.4a4.354 4.354 0 00-4.4-4.3c-2.41.03-4.33 2-4.3 4.4z"/>
    <path class="st1" d="M176.41 143c.03 2.4 2 4.32 4.4 4.3 2.4-.03 4.32-2 4.3-4.4-.03-2.4-2-4.32-4.4-4.3-2.4.03-4.33 2-4.3 4.4zM185.05 138.02c.03 2.4 2 4.32 4.4 4.3 2.4-.03 4.32-1.99 4.3-4.4-.03-2.4-2-4.32-4.4-4.3a4.34 4.34 0 00-4.3 4.4zM190.39 129.8c.03 2.4 2 4.32 4.4 4.3 2.4-.03 4.32-2 4.3-4.4-.03-2.4-2-4.32-4.4-4.3-2.4.04-4.33 2-4.3 4.4z"/>
    <path class="st9" d="M105.22 141.52s-22.44 10.47-25.43 33.91c0 0 23.93 21.44 43.38 19.95 19.45-1.5-17.95-53.86-17.95-53.86zM224.05 134.43s17.86-1.35 41.61 9.21l-18.47 45.74-23.14-54.95z"/>
  </g>
</svg>
