<svg version="1.1" id="Ebene_1" xmlns="http://www.w3.org/2000/svg" x="0" y="0" viewBox="0 0 165.25 406.13" xml:space="preserve">
  <style>
    .st0{opacity:.1;fill:#000100}.st1{fill:#2b2c2d}.st2{fill:#f2ab8f}.st3{fill:#5d5d5d}.st4{fill:#f2f2f2}.st6{fill:#896449}.st8{fill:#4f1c20}
  </style>
  <g class="feet0">
    <ellipse class="st0" cx="86.35" cy="394.28" rx="78.4" ry="11.85"/>
    <path class="st1" d="M28.85 347.55s-5.81 26.58-2.73 43.15c0 0 26.48 21.51 31.84 3.45l-5.87-44.93-23.24-1.67z"/>
    <path class="st2" d="M54.06 335.47c-8.4.18-16.79.01-25.14-.61.35 16.08.22 28.1.22 28.1s1 14.79 5.41 16.12c11.14 8.33 19.37-1.6 19.37-1.6l-1.82-28.26c0-.01.72-5.25 1.96-13.75zM124.36 349.75s-1.01-13.49-2.34-32.39c-2.81 4.43-7.64 7.52-13.24 8.51-4.16.74-8.33 1.07-12.52 1.19 3.58 14.09 6.01 24.38 6.01 24.38l25.48 33h17.83l-21.22-34.69z"/>
    <path class="st1" d="M102.56 349.47s-7.64 7.08-5.1 17.83c2.55 10.76 6.79 27.34 6.79 27.34l3.4-.28-.57-19.98s8.21 17.43 12.17 18.84c3.96 1.42 35.39 6.79 38.22 0 2.83-6.79-14.15-13.3-14.15-13.3s-7.93 4.81-16.42-1.42c-8.49-6.22-24.34-29.03-24.34-29.03z"/>
    <path d="M42.09 4.73L98.03 0c60.64 87.01 25.59 204.84 25.59 204.84-.69 17.94 5.41 104.31 7.62 134.81-13.34 7.58-31.28 9.12-39.05 6.66-4.13-16.97-9.43-52.59-11.6-75.63-3.14-33.4 3.51-56.24 7.08-63.86-2.65-7.79-10.28-60.5-13.24-93.55l-.55.1c2.64 50.62.28 82.33-4.31 101.56-5.3 33.43-8.03 107.03-8.72 128.05-8.13.81-23.43 7.4-38.15-.73-2.45-19.91-2.69-43.8-4.03-63.45-2.89-42.39 13.17-66.39 13.17-66.39l.06-.8C23.37 183.05 5.71 120.84 4.31 91.24 2.47 52.11 42.09 4.73 42.09 4.73z" fill="#6d6d6d"/>
  </g>
  <g class="feet1">
    <path class="st0" d="M165.25 396.63c0 5.25-35.45 9.5-79.18 9.5s-79.18-4.25-79.18-9.5 35.45-9.5 79.18-9.5 79.18 4.26 79.18 9.5z"/>
    <path class="st1" d="M27.02 350.2s-5.17 27.05-1.61 43.73c0 0 27.36 21.06 32.3 2.65l-7.13-45.3-23.56-1.08z"/>
    <path class="st2" d="M32.59 210.09s-18.4 32.13-12.11 63.69c6.28 31.56 7.25 92.01 7.25 92.01s1.4 14.94 5.9 16.17c11.49 8.13 19.56-2.14 19.56-2.14l-2.59-28.55s11.43-103.41 21.3-139.68c9.85-36.28-32.17-52.65-39.31-1.5zM81.05 205.6s-14.61 27.5-4.3 55.01c10.31 27.5 26.07 90.82 26.07 90.82l25.5 35.4h18.05l-21.49-35.12s-9.45-126.35-8.59-148.69c.85-22.34-33.52-28.36-35.24 2.58z"/>
    <path class="st1" d="M102.82 351.43s-7.74 7.16-5.16 18.05 6.88 27.67 6.88 27.67l3.44-.29-.57-20.22s8.31 17.64 12.32 19.07c4.01 1.43 35.81 6.88 38.68 0 2.87-6.88-14.32-13.47-14.32-13.47s-8.02 4.87-16.62-1.43c-8.61-6.3-24.65-29.38-24.65-29.38z"/>
    <path class="st2" d="M26.97 128.5s6.75 80.23 8.73 96.67c.72 5.99 35.91 32.56 43.42-54.23 6.98-80.8-52.15-42.44-52.15-42.44z"/>
    <path class="st2" d="M72.82 118.36s7.42 66.78 9.95 90.91c.63 6 28.85 66.47 43.28-63.89 8.91-80.62-53.23-27.02-53.23-27.02z"/>
    <path class="st3" d="M40.99 3.71C30.95 15.78 2.03 53.41 2.25 86.5 2.51 126.53 17.54 219 17.54 219s66.49 24.7 110.19 1.9c0 0 30.75-126.21-22.14-217.2h-64.6z"/>
  </g>
  <g class="feet2">
    <path class="st0" d="M165.25 396.63c0 5.25-35.45 9.5-79.18 9.5-43.73 0-79.18-4.25-79.18-9.5s35.45-9.5 79.18-9.5c43.73 0 79.18 4.26 79.18 9.5z"/>
    <path class="st2" d="M75.68 204.75s-15.3 27.13-5.68 54.88 23.78 91.45 23.78 91.45l24.6 36.03 18.04.45-20.6-35.65s-6.27-126.54-4.85-148.86c1.43-22.31-32.79-29.19-35.29 1.7z"/>
    <path class="st4" d="M93.78 351.08s-7.91 6.97-5.61 17.91c2.3 10.95 6.18 27.83 6.18 27.83l3.44-.2-.06-20.23s7.86 17.84 11.84 19.38c3.97 1.53 35.63 7.78 38.66.97 3.04-6.8-13.98-13.82-13.98-13.82s-8.14 4.67-16.58-1.85c-8.43-6.51-23.89-29.99-23.89-29.99z"/>
    <path class="st2" d="M32.85 202.67s-17.17 25.99-9.52 54.35c7.65 28.36 17.3 92.89 17.3 92.89l22.01 37.67 17.97 1.72-18.04-37s2.62-126.67 5.61-148.83c2.98-22.17-30.68-31.43-35.33-.8z"/>
    <path class="st4" d="M40.63 349.91s-8.38 6.39-6.85 17.48c1.53 11.08 4.21 28.2 4.21 28.2l3.45.04 1.36-20.18s6.59 18.35 10.45 20.16c3.86 1.81 34.99 10.26 38.5 3.68 3.51-6.57-12.98-14.77-12.98-14.77s-8.45 4.08-16.4-3.01c-7.97-7.09-21.74-31.6-21.74-31.6z"/>
    <path class="st3" d="M40.99 3.71C30.95 15.78 2.03 53.41 2.25 86.5c.26 40.03 7.69 223.69 7.69 223.69s96.89 30.4 127.28 1.9c0 0 21.74-213.42-31.67-308.39H40.99z"/>
  </g>
  <g class="feet3">
    <path class="st1" d="M16.89 349.01S5.9 368.05 4.21 381.56c0 0 15.11 23.06 23.67 10.47l6.5-36.04-17.49-6.98z"/>
    <path class="st2" d="M57.83 244.8s-22.3 19.4-25.84 44.85c-3.54 25.45-18.66 71.29-18.66 71.29s-2.86 11.64.21 13.74c6.53 9.14 15.31 3.52 15.31 3.52l5.53-22.21S70.12 281 87.07 256.23c16.96-24.77-10.44-48.14-29.24-11.43z"/>
    <path class="st2" d="M97.24 246.01s-11.67 21.96-3.43 43.92 20.82 72.52 20.82 72.52l20.36 28.27h14.41l-17.16-28.04s-7.55-100.88-6.86-118.73c.68-17.84-26.77-22.64-28.14 2.06z"/>
    <path class="st1" d="M114.62 362.45s-6.18 5.72-4.12 14.41c2.06 8.69 5.49 22.09 5.49 22.09l2.75-.23-.46-16.14s6.63 14.08 9.84 15.23c3.2 1.14 28.59 5.49 30.88 0 2.29-5.49-11.44-10.75-11.44-10.75s-6.41 3.89-13.27-1.14c-6.86-5.04-19.67-23.47-19.67-23.47z"/>
    <path class="st2" d="M54.05 184.45s5.39 64.06 6.97 77.19c.58 4.78 28.67 26 34.67-43.3 5.58-64.52-41.64-33.89-41.64-33.89z"/>
    <path class="st2" d="M90.67 176.35s5.92 53.32 7.94 72.59c.5 4.79 23.04 53.07 34.56-51.02 7.12-64.36-42.5-21.57-42.5-21.57z"/>
    <path class="st0" d="M165.25 396.57c0 5.28-36.49 9.56-81.5 9.56s-81.5-4.28-81.5-9.56 36.49-9.56 81.5-9.56c45.01.01 81.5 4.29 81.5 9.56z"/>
    <path d="M65.26 84.81c-8.02 9.64-31.11 39.69-30.93 66.11.21 31.96 12.71 72.26 12.71 72.26s63.46 13.15 89.06-2.76c0 0 23.02-64.68-19.21-135.61H65.26z" fill="#919191"/>
  </g>
  <g class="feet4">
    <path class="st0" d="M158.35 394.16c0 6.61-35.45 11.97-79.18 11.97-43.72 0-79.17-5.36-79.17-11.97s35.45-11.97 79.18-11.97c43.72 0 79.17 5.36 79.17 11.97z"/>
    <path class="st6" d="M12.85 340.9s-8.04 26.28-6.3 43.2c0 0 24.88 23.83 31.76 6.1l-2.2-45.71-23.26-3.59z"/>
    <path class="st2" d="M39.21 330.82c-8.47-.51-16.9-1.37-25.26-2.69-.97 16.21-2.09 28.3-2.09 28.3s-.21 14.97 4.12 16.68c10.52 9.3 19.63-.01 19.63-.01l.5-28.6s1.16-5.22 3.1-13.68zM126.36 349.2s-1.02-13.63-2.36-32.71c-2.84 4.48-7.71 7.59-13.37 8.6-4.2.75-8.42 1.08-12.64 1.21 3.61 14.23 6.07 24.62 6.07 24.62l25.73 33.32h18.01l-21.44-35.04z"/>
    <path class="st6" d="M104.35 348.91s-7.72 7.15-5.15 18.01c2.57 10.86 6.86 27.61 6.86 27.61l3.43-.29-.57-20.17s8.29 17.6 12.29 19.03c4 1.43 35.73 6.86 38.59 0 2.86-6.86-14.29-13.44-14.29-13.44s-8 4.86-16.58-1.43c-8.57-6.28-24.58-29.32-24.58-29.32z"/>
    <path d="M104.84 3.72H40.93C32.4 14.68 3.54 54.43 5.13 88.13c1.41 29.9 19.24 92.72 27.85 121.55l-.06.81S4.65 246.21 7.57 289.01c1.35 19.84-2.47 21.37 0 41.48 14.87 8.2 28.24 7.1 36.45 6.28.7-21.22 21.66-89.98 27.01-123.74 4.63-19.41 7.02-51.44 4.35-102.56l.56-.1c2.98 33.37 10.69 86.6 13.37 94.47-3.61 7.69-10.32 30.76-7.15 64.49 2.19 23.27 7.54 59.24 11.72 76.38 7.85 2.48 25.96.93 39.44-6.72-2.24-30.81-8.4-118.03-7.7-136.14-.01 0 33.35-112.18-20.78-199.13z" fill="#30323d"/>
  </g>
  <g class="feet5">
    <ellipse class="st0" cx="85.75" cy="396.67" rx="78.87" ry="9.46"/>
    <path class="st8" d="M26.93 350.42s-5.15 26.94-1.6 43.56c0 0 27.26 20.98 32.18 2.64l-7.1-45.13-23.48-1.07z"/>
    <path class="st2" d="M32.47 210.85s-18.33 32-12.07 63.44c6.26 31.44 7.22 91.65 7.22 91.65s1.4 14.88 5.88 16.11c11.44 8.1 19.48-2.13 19.48-2.13l-2.58-28.44s11.38-103.01 21.21-139.15c9.84-36.13-32.02-52.45-39.14-1.48z"/>
    <path class="st2" d="M26.87 129.57s6.72 79.92 8.69 96.3c.72 5.96 35.77 32.43 43.25-54.02 6.97-80.49-51.94-42.28-51.94-42.28z"/>
    <g>
      <path class="st8" d="M126.65 350.42s5.15 26.94 1.6 43.56c0 0-27.26 20.98-32.18 2.64l7.1-45.13 23.48-1.07z"/>
      <path class="st2" d="M121.1 210.85s18.33 32 12.07 63.44c-6.26 31.44-7.22 91.65-7.22 91.65s-1.4 14.88-5.88 16.11c-11.44 8.1-19.48-2.13-19.48-2.13l2.58-28.44S91.79 248.47 81.96 212.33c-9.83-36.13 32.03-52.45 39.14-1.48z"/>
      <path class="st2" d="M126.7 129.57s-6.72 79.92-8.69 96.3c-.72 5.96-35.77 32.43-43.25-54.02-6.96-80.49 51.94-42.28 51.94-42.28z"/>
    </g>
    <path d="M41.78 4.13C32.8 14.76 2.03 53.67 2.25 87.73c.26 39.88 15.86 90.15 15.86 90.15s79.17 16.41 111.12-3.44c0 0 28.95-81.37-24.65-170.31h-62.8z" fill="#512a2e"/>
  </g>
</svg>
