<svg version="1.1" xmlns="http://www.w3.org/2000/svg" x="0" y="0" viewBox="0 0 204.14 200" xml:space="preserve">
  <style>
    .st0{fill:#37373f}.st1{fill:#ce8d76}.st2{fill:#f2ab8f}.st3{fill:#b57662}.st4{fill:#222228}.st5{opacity:.5;fill:#d69f8a}.st6{fill:#0a0705}.st7{fill:#c96565}.st8{fill:#fff}.st11{fill:#2c2c33}
  </style>
  <g class="head0">
    <path class="st0" d="M30.34 78.41s-16.51 1.27-13.97 23.5-22.79 5.77-11.43 41.91c6.98 22.23 26.04 15.24 38.74 22.23 7.97 4.38 10.16 27.94 43.18 23.5s32.38-5.28 52.71-5.72c29.84-.63 25.36-12.93 36.19-28.57 5.72-8.26 38.1-24.13 14.61-54.61-19.74-25.62 1.27-90.81-71.12-77.47-72.4 13.31-88.91 55.23-88.91 55.23z"/>
    <path class="st1" d="M123.01 183.17l-.16-35.49H94.08l1.85 40.78c.96 9.5 10.52 11.35 14.58 11.35 8.03.01 11.75-3.08 12.5-16.64z"/>
    <path class="st2" d="M163.03 78.39s11.23 75.45-32.84 87.06c-31.3 8.25-76-20.68-73.47-69.62 2.54-48.95 33.81-70.42 55.87-69.27 22.06 1.14 45.16 17.88 50.44 51.83z"/>
    <path class="st3" d="M130.72 109.95c1.74 1.46 3.3 3.01 4.96 4.41 1.64 1.42 3.34 2.71 5.17 3.77l.99.57-.71.84c-.5.59-1.04 1.15-1.56 1.72-.51.58-1.07 1.12-1.61 1.68-.56.54-1.1 1.09-1.69 1.62a29.4 29.4 0 01-1.79 1.53c.37-.7.76-1.38 1.18-2.04.4-.67.85-1.31 1.28-1.96.45-.63.88-1.28 1.35-1.89.47-.62.92-1.25 1.41-1.85l.27 1.41c-2.08-1.06-3.89-2.56-5.42-4.23-1.52-1.7-2.82-3.55-3.83-5.58z"/>
    <path class="st2" d="M59.22 116.78s.3-26.19-13.85-20.76-2.15 40.55 18.7 32.38l-4.85-11.62z"/>
    <path class="st5" d="M44.36 107.98s2.89-11.06 7.57-4.74c4.68 6.31 2.66 8.08 2.66 8.08s-6.2 8.08 2.47 11.8c0-.01-12.56 4.48-12.7-15.14z"/>
    <path class="st0" d="M128.75 23.89s-2.5 62.72-72.28 76.82c0 0-8.96-11.45-23.24-6.17-4.94-15.6-9.92-51 12.37-71.46 22.29-20.46 75.21-39.99 83.15.81z"/>
    <path class="st6" d="M80.88 87.46c.9-2.7 2.66-5.09 4.86-6.99 2.22-1.89 4.93-3.31 7.9-3.91 2.96-.61 6.18-.31 8.92 1 2.74 1.29 4.9 3.51 6.07 6.08-2.38-1.54-4.7-2.71-7.09-3.26-2.38-.57-4.78-.55-7.16-.08-2.37.48-4.7 1.39-6.94 2.62-2.24 1.22-4.37 2.76-6.56 4.54zM132.84 81.15c1.02-2.57 3.18-4.73 5.76-6.04 2.59-1.32 5.61-1.84 8.53-1.53 2.92.3 5.76 1.45 8.02 3.27 2.26 1.81 3.93 4.3 4.53 7-1.99-1.91-4-3.42-6.17-4.49a19.787 19.787 0 00-6.78-1.98c-2.33-.25-4.71-.09-7.04.52-2.33.59-4.59 1.68-6.85 3.25z"/>
    <path class="st7" d="M106.27 136.29s26.07-10.36 35.2 0h-35.2zM106.27 136.29s8.64 16.98 22 15.94c15.57-1.21 13.2-15.94 13.2-15.94h-35.2z"/>
    <path class="st8" d="M106.27 136.29h35.2s-7.75 23.31-35.2 0z"/>
    <g>
      <path class="st4" d="M136.94 106.4c-.33-2.78-.01-5.64 1.12-8.38.58-1.36 1.44-2.71 2.76-3.75.66-.52 1.44-.92 2.27-1.18.84-.25 1.7-.3 2.54-.26.84.05 1.6.31 2.38.51.75.35 1.52.66 2.15 1.22 1.31 1.03 2.22 2.45 2.7 3.9.9 2.92.7 5.86-.22 8.5-.34-2.75-.87-5.41-2-7.57-1.15-2.14-2.99-3.35-5.24-3.52-1.06-.08-2 .15-2.88.73-.88.57-1.67 1.48-2.34 2.53-1.36 2.12-2.31 4.66-3.24 7.27z"/>
    </g>
    <g>
      <path class="st4" d="M92.89 108.38c-.62-2.73-.6-5.61.26-8.45.44-1.41 1.2-2.85 2.44-4 1.25-1.15 3.07-1.79 4.72-1.73l.62.03.6.1c.4.08.8.13 1.19.23.77.29 1.55.57 2.22 1.07 1.37.93 2.38 2.25 3 3.64 1.17 2.81 1.29 5.75.65 8.47-.63-2.7-1.44-5.28-2.77-7.33-1.36-2.02-3.28-3.13-5.54-3.15a4.39 4.39 0 00-2.82.88c-.82.63-1.53 1.59-2.09 2.69-1.15 2.23-1.83 4.85-2.48 7.55z"/>
    </g>
    <path class="st8" d="M63.67 129.72a6.61 6.61 0 11-13.222-.002 6.61 6.61 0 0113.222.002z"/>
  </g>
  <g class="head1">
    <path class="st0" d="M30.61 79.05s-16.45 1.27-13.92 23.41c2.53 22.14-22.7 5.74-11.39 41.75 6.96 22.14 25.94 15.18 38.59 22.14 7.94 4.37 10.12 27.84 43.02 23.41 32.9-4.43 32.26-5.26 52.51-5.69 29.73-.63 25.27-12.88 36.06-28.47 5.69-8.22 37.96-24.04 14.55-54.4-19.67-25.52 1.27-90.46-70.85-77.18S30.61 79.05 30.61 79.05z"/>
    <path class="st1" d="M122.57 182.61l-.17-36.69H92.65l1.91 42.17c1 9.82 10.87 11.74 15.07 11.74 8.32-.01 12.16-3.21 12.94-17.22z"/>
    <path class="st2" d="M162.28 78.1s11.19 75.16-32.71 86.73c-31.18 8.21-75.72-20.6-73.19-69.36 2.53-48.76 33.68-70.15 55.66-69.01 21.96 1.13 44.98 17.81 50.24 51.64z"/>
    <path class="st3" d="M130.09 109.54c1.73 1.45 3.29 2.99 4.95 4.39 1.63 1.42 3.33 2.71 5.15 3.75l.98.56-.71.84c-.5.59-1.03 1.14-1.55 1.72-.51.58-1.07 1.11-1.6 1.67-.56.54-1.1 1.09-1.68 1.61-.57.53-1.16 1.04-1.78 1.53.37-.7.76-1.37 1.17-2.03.4-.67.84-1.3 1.27-1.95.45-.63.88-1.27 1.35-1.88.47-.61.92-1.24 1.4-1.84l.27 1.4c-2.07-1.06-3.87-2.55-5.4-4.21-1.52-1.7-2.82-3.54-3.82-5.56z"/>
    <path class="st4" d="M150.96 102.69c-.28 5.31-2.87 9.5-5.79 9.35-2.92-.15-5.06-4.58-4.79-9.9.28-5.31 2.87-9.5 5.79-9.35 2.92.16 5.07 4.59 4.79 9.9zM101.11 104.55c-.28 5.31-2.87 9.5-5.79 9.35-2.92-.15-5.06-4.58-4.79-9.9.28-5.31 2.87-9.5 5.79-9.35 2.92.16 5.06 4.59 4.79 9.9z"/>
    <path class="st2" d="M58.86 116.34s.3-26.09-13.8-20.68c-14.1 5.41-2.14 40.39 18.63 32.26l-4.83-11.58z"/>
    <path class="st5" d="M44.05 107.57s2.88-11.02 7.54-4.73c4.66 6.29 2.65 8.05 2.65 8.05s-6.18 8.05 2.46 11.76c.01 0-12.51 4.47-12.65-15.08z"/>
    <path class="st0" d="M128.13 23.8s-2.49 62.48-72.01 76.53c0 0-8.93-11.4-23.15-6.15-4.92-15.54-9.89-50.8 12.32-71.19 22.2-20.38 74.93-39.84 82.84.81z"/>
    <path class="st6" d="M80.43 87.13c.89-2.68 2.65-5.07 4.84-6.96 2.21-1.88 4.91-3.29 7.87-3.89 2.95-.6 6.16-.3 8.89 1 2.73 1.29 4.88 3.5 6.05 6.06-2.38-1.54-4.68-2.7-7.06-3.25-2.37-.57-4.76-.55-7.13-.08-2.36.47-4.68 1.39-6.91 2.61-2.24 1.21-4.36 2.74-6.55 4.51zM132.2 80.84c1.02-2.56 3.16-4.71 5.74-6.02 2.58-1.32 5.59-1.83 8.5-1.52 2.91.3 5.74 1.44 7.99 3.25s3.91 4.29 4.51 6.97c-1.99-1.9-3.98-3.41-6.15-4.48a20.144 20.144 0 00-6.75-1.98c-2.32-.25-4.69-.09-7.01.52-2.33.61-4.57 1.7-6.83 3.26z"/>
    <path class="st7" d="M105.73 135.78s25.98-10.32 35.07 0h-35.07zM105.73 135.78s8.61 16.92 21.92 15.88c15.52-1.21 13.15-15.88 13.15-15.88h-35.07z"/>
    <path class="st8" d="M105.73 135.78h35.07s-7.72 23.22-35.07 0zM52.06 129.74a5.63 5.63 0 005.63 5.63c3.11 0 5.63-2.52 5.63-5.63s-2.52-5.63-5.63-5.63a5.63 5.63 0 00-5.63 5.63z"/>
  </g>
  <g class="head2">
    <path class="st0" d="M30.34 78.41s-16.51 1.27-13.97 23.5c2.54 22.22-22.79 5.77-11.43 41.91 6.98 22.22 26.04 15.24 38.74 22.22 7.97 4.38 10.16 27.94 43.18 23.5 33.02-4.45 32.38-5.28 52.71-5.71 29.85-.63 25.36-12.93 36.2-28.58 5.72-8.26 38.1-24.13 14.61-54.61-19.74-25.61 1.27-90.81-71.12-77.47-72.41 13.32-88.92 55.24-88.92 55.24z"/>
    <path class="st1" d="M123.01 183.17l-.16-35.49H94.08l1.85 40.78c.96 9.5 10.52 11.35 14.58 11.35 8.03.01 11.75-3.09 12.5-16.64z"/>
    <path class="st2" d="M163.03 78.39s11.23 75.44-32.84 87.06c-31.3 8.25-76-20.68-73.46-69.62 2.54-48.95 33.81-70.42 55.87-69.27 22.05 1.14 45.15 17.88 50.43 51.83z"/>
    <path class="st3" d="M130.72 109.95c1.74 1.46 3.3 3.01 4.96 4.41 1.64 1.42 3.34 2.71 5.17 3.77l.99.57-.71.84c-.5.59-1.04 1.15-1.56 1.72-.51.58-1.07 1.12-1.61 1.68-.56.54-1.1 1.09-1.69 1.62a29.4 29.4 0 01-1.79 1.53c.37-.7.76-1.38 1.18-2.04.4-.67.85-1.31 1.28-1.96.45-.63.88-1.28 1.35-1.89.47-.62.92-1.25 1.41-1.85l.27 1.41c-2.08-1.06-3.89-2.56-5.42-4.23-1.52-1.7-2.82-3.55-3.83-5.58z"/>
    <path class="st4" d="M151.67 103.08c-.28 5.33-2.88 9.54-5.81 9.38-2.93-.15-5.08-4.6-4.81-9.93.28-5.33 2.88-9.54 5.81-9.38 2.94.15 5.09 4.6 4.81 9.93zM101.63 104.95c-.28 5.33-2.88 9.54-5.81 9.38-2.93-.15-5.08-4.6-4.81-9.93.28-5.33 2.88-9.54 5.81-9.38 2.93.15 5.09 4.6 4.81 9.93z"/>
    <path class="st2" d="M59.22 116.78s.3-26.19-13.85-20.76c-14.16 5.43-2.15 40.55 18.7 32.38l-4.85-11.62z"/>
    <path class="st5" d="M44.36 107.98s2.89-11.06 7.57-4.74c4.68 6.31 2.66 8.08 2.66 8.08s-6.2 8.09 2.47 11.8c0-.01-12.56 4.48-12.7-15.14z"/>
    <path class="st0" d="M128.75 23.89s-2.5 62.72-72.28 76.82c0 0-8.96-11.45-23.24-6.17-4.93-15.6-9.92-51 12.37-71.46 22.29-20.46 75.21-39.99 83.15.81z"/>
    <g>
      <path class="st6" d="M80.88 82.37c.9-2.7 2.66-5.09 4.86-6.99 2.22-1.89 4.93-3.31 7.9-3.91 2.96-.61 6.18-.31 8.92 1 2.74 1.29 4.9 3.51 6.07 6.08-2.38-1.54-4.7-2.71-7.09-3.26-2.38-.57-4.78-.55-7.16-.08-2.37.48-4.7 1.39-6.94 2.62-2.24 1.22-4.37 2.76-6.56 4.54z"/>
    </g>
    <g>
      <path class="st6" d="M132.84 76.06c1.02-2.57 3.18-4.73 5.76-6.04 2.59-1.32 5.61-1.84 8.53-1.53 2.92.3 5.76 1.45 8.02 3.27 2.26 1.81 3.93 4.3 4.53 7-1.99-1.91-4-3.42-6.17-4.49a19.799 19.799 0 00-6.77-1.98c-2.33-.25-4.71-.09-7.04.52-2.34.59-4.6 1.68-6.86 3.25z"/>
    </g>
    <g>
      <path class="st7" d="M103.01 137.46s25.52-10.14 34.45 0h-34.45zM103.01 137.46s8.45 16.62 21.53 15.6c15.24-1.19 12.92-15.6 12.92-15.6h-34.45z"/>
      <path d="M103.01 137.46h34.45s-7.58 22.81-34.45 0z" fill="#ea9898"/>
      <path d="M114.48 139.41c-2.62 0-5.17.4-7.54 1.16-1.27-.93-2.57-1.94-3.93-3.1h34.45s-2.57 7.68-9.97 9.66c-2.94-4.45-7.56-7.72-13.01-7.72z" fill="#7c4a4a"/>
    </g>
    <path class="st8" d="M62.86 128.07a6.61 6.61 0 11-13.222-.002 6.61 6.61 0 0113.222.002z"/>
  </g>
  <g class="head3">
    <path class="st0" d="M26.61 74.59s3.94 5.46-13.01 69.03c-6.19 23.22 19.07 43.79 46.61 50.14 9.14 2.11 84.75 6.36 126.42-22.6 8.5-5.91 31.78-29.66 5.03-73.65-17.33-28.5-2.4-99.72-77.07-85.97C39.93 25.3 26.61 74.59 26.61 74.59z"/>
    <path class="st1" d="M122.19 182.65l-.17-36.6H92.34l1.9 42.06c.99 9.79 10.85 11.71 15.03 11.71 8.31 0 12.14-3.19 12.92-17.17z"/>
    <path class="st2" d="M163.46 74.58s11.59 77.81-33.87 89.79c-32.28 8.5-78.39-21.33-75.77-71.81 2.62-50.48 34.87-72.63 57.62-71.45 22.75 1.18 46.58 18.45 52.02 53.47z"/>
    <path class="st3" d="M130.14 107.13c1.79 1.5 3.41 3.1 5.12 4.55 1.69 1.46 3.45 2.8 5.33 3.88l1.02.59-.74.86c-.52.61-1.07 1.19-1.6 1.78-.53.6-1.11 1.15-1.66 1.73-.57.56-1.14 1.13-1.74 1.67-.59.55-1.2 1.08-1.84 1.58.38-.72.78-1.42 1.21-2.1.42-.69.87-1.35 1.32-2.02.47-.65.91-1.32 1.4-1.95.48-.63.95-1.28 1.45-1.91l.28 1.45c-1.07-.54-2.07-1.21-3.01-1.94a23.67 23.67 0 01-2.58-2.42c-1.58-1.75-2.93-3.66-3.96-5.75z"/>
    <path class="st4" d="M151.75 100.05c-.29 5.5-2.97 9.84-5.99 9.68-3.02-.16-5.24-4.74-4.96-10.25.29-5.5 2.97-9.84 5.99-9.68 3.02.16 5.24 4.74 4.96 10.25zM100.13 101.97c-.29 5.5-2.97 9.83-5.99 9.68-3.02-.16-5.24-4.74-4.96-10.25.29-5.5 2.97-9.84 5.99-9.68 3.03.16 5.25 4.75 4.96 10.25z"/>
    <path class="st2" d="M56.39 114.18s.31-27.01-14.29-21.41c-14.6 5.6-2.22 41.82 19.29 33.4l-5-11.99z"/>
    <path class="st5" d="M41.07 105.09s2.98-11.41 7.81-4.89c4.83 6.51 2.75 8.33 2.75 8.33s-6.39 8.34 2.55 12.17c-.01.01-12.97 4.63-13.11-15.61z"/>
    <path class="st0" d="M128.11 18.36s-2.58 64.69-74.55 79.23c0 0-9.24-11.81-23.97-6.36-5.09-16.09-9.32-44.45 13.68-65.55 22.98-21.11 74.85-41.67 84.84-7.32z"/>
    <g>
      <path class="st6" d="M78.73 78.68c.93-2.78 2.74-5.25 5.02-7.21 2.28-1.95 5.09-3.41 8.15-4.03 3.05-.62 6.38-.32 9.2 1.03 2.83 1.33 5.06 3.62 6.26 6.27-2.46-1.59-4.84-2.8-7.31-3.37-2.45-.59-4.93-.57-7.38-.09-2.45.49-4.85 1.44-7.16 2.7-2.32 1.28-4.52 2.86-6.78 4.7z"/>
    </g>
    <g>
      <path class="st6" d="M132.32 72.17c1.06-2.65 3.28-4.88 5.94-6.23 2.67-1.36 5.79-1.9 8.8-1.58 3.01.31 5.94 1.49 8.27 3.37 2.33 1.87 4.05 4.44 4.67 7.22-2.06-1.97-4.12-3.53-6.36-4.63a20.579 20.579 0 00-6.99-2.05c-2.4-.26-4.85-.09-7.26.54-2.41.62-4.73 1.74-7.07 3.36z"/>
    </g>
    <g>
      <path class="st7" d="M101.56 135.5s26.32-10.46 35.53 0h-35.53zM101.56 135.5s8.72 17.14 22.21 16.09c15.72-1.23 13.32-16.09 13.32-16.09h-35.53z"/>
      <path class="st8" d="M101.56 135.5h35.53s-7.82 23.53-35.53 0z"/>
    </g>
    <path class="st8" d="M60.15 125.82c0 3.76-3.05 6.82-6.82 6.82-3.76 0-6.82-3.05-6.82-6.82 0-3.76 3.05-6.81 6.82-6.81a6.8 6.8 0 016.82 6.81z"/>
  </g>
  <g class="head4">
    <path class="st11" d="M74.44 30.93S58.64-5.27 33.63.65C8.62 6.58-9.81 50.02 38.24 66.48c48.05 16.45 36.2-35.55 36.2-35.55z"/>
    <path class="st1" d="M121.02 183.82l-.15-34.11H93.2l1.77 39.2c.93 9.13 10.11 10.91 14.01 10.91 7.74 0 11.31-2.98 12.04-16z"/>
    <path class="st2" d="M159.48 83.1s10.8 72.52-31.56 83.68c-30.09 7.93-73.06-19.88-70.62-66.93C59.74 52.8 89.8 32.16 111 33.26c21.2 1.1 43.41 17.2 48.48 49.84z"/>
    <path class="st3" d="M128.43 113.43c1.67 1.4 3.18 2.89 4.77 4.24 1.57 1.37 3.21 2.61 4.97 3.62l.93.54-.67.81c-.47.57-1 1.11-1.49 1.66-.49.56-1.03 1.08-1.55 1.61-1.06 1.05-2.15 2.08-3.34 3.03.71-1.35 1.52-2.6 2.36-3.84.44-.6.85-1.23 1.3-1.82.45-.59.88-1.2 1.36-1.77l.26 1.34c-2-1.02-3.73-2.46-5.22-4.06-1.46-1.63-2.72-3.41-3.68-5.36z"/>
    <path class="st4" d="M148.57 106.83c-.27 5.13-2.77 9.17-5.58 9.02-2.82-.15-4.89-4.42-4.62-9.55.27-5.13 2.77-9.17 5.58-9.02 2.81.15 4.88 4.42 4.62 9.55zM100.46 108.62c-.27 5.13-2.77 9.17-5.58 9.02-2.82-.15-4.89-4.42-4.62-9.55.27-5.13 2.77-9.17 5.58-9.02 2.82.15 4.89 4.43 4.62 9.55z"/>
    <path class="st2" d="M59.7 120s.29-25.17-13.32-19.95c-13.61 5.22-2.06 38.98 17.98 31.12L59.7 120z"/>
    <path class="st5" d="M45.41 111.53s2.77-10.63 7.27-4.56c4.5 6.07 2.56 7.76 2.56 7.76s-5.96 7.77 2.37 11.35c.01 0-12.07 4.32-12.2-14.55z"/>
    <path class="st0" d="M126.54 30.7s-2.41 60.29-69.48 73.84c0 0-.47-8.25-14.2-3.18-4.76-14.99-17.69-51.77 3.74-71.44 21.43-19.66 72.3-38.44 79.94.78z"/>
    <g>
      <path class="st7" d="M101.79 139.88s24.53-9.74 33.11 0h-33.11zM101.79 139.88s8.13 15.98 20.7 15c14.65-1.14 12.42-15 12.42-15h-33.12z"/>
      <path class="st8" d="M101.79 139.88h33.11c.01 0-7.28 21.92-33.11 0z"/>
    </g>
    <path class="st8" d="M63.2 130.85c0 3.51-2.84 6.35-6.35 6.35s-6.35-2.84-6.35-6.35 2.84-6.35 6.35-6.35c3.5 0 6.35 2.84 6.35 6.35z"/>
    <path class="st0" d="M109.33 16.45s36.86-12.51 52.66 15.8c15.8 28.3-1.97 54.63-1.97 54.63s-5.27-15.8-9.87-26.99c0 0 .66 23.7-22.38 29.62 0 0 11.85-17.11 8.56-34.23 0 0 .66 30.28-33.57 37.52 0 0 18.43-30.28 13.16-52-5.27-21.71-6.59-24.35-6.59-24.35z"/>
    <g>
      <path class="st6" d="M80.51 86.92c.86-2.59 2.56-4.89 4.67-6.72 2.13-1.82 4.74-3.18 7.6-3.75 2.84-.58 5.95-.29 8.58.96 2.64 1.24 4.71 3.37 5.84 5.85-2.29-1.48-4.52-2.61-6.81-3.14-2.29-.55-4.6-.53-6.88-.08-2.28.46-4.52 1.34-6.67 2.52-2.17 1.17-4.22 2.64-6.33 4.36z"/>
    </g>
    <g>
      <path class="st6" d="M130.47 80.85c.98-2.47 3.05-4.54 5.54-5.81 2.49-1.27 5.39-1.77 8.2-1.47 2.81.29 5.54 1.39 7.71 3.14 2.17 1.74 3.77 4.14 4.35 6.73-1.92-1.84-3.84-3.29-5.93-4.32a19.188 19.188 0 00-6.51-1.91c-2.24-.24-4.52-.09-6.76.5-2.26.58-4.43 1.63-6.6 3.14z"/>
    </g>
  </g>
  <g class="head5">
    <path class="st11" d="M54.14 82.33s-54.78 26.7-30.13 63.68c24.65 36.98 82.17 36.98 83.54-2.05 1.36-39.03-53.41-61.63-53.41-61.63z"/>
    <path class="st0" d="M145.21 135.06c-27.77.7-15.87-10.09-39.18-26.4-10.74-7.51-18.41-17.45-25.59-28.28-6.91-10.42-14.82-21.78-14.66-34.75.02-1.35-.12-2.6-.38-3.76 12.9-7.58 30.01-14.53 52.6-18.7 72.39-13.34 66.05 27.57 64.19 59.86-2.05 35.61-46.05 31.05-49.3 39.03-1.83-.81 14.78 12.94 12.32 13z"/>
    <path class="st1" d="M121.76 183.17l-.16-35.49H92.83l1.85 40.78c.96 9.5 10.52 11.35 14.58 11.35 8.03.01 11.74-3.08 12.5-16.64z"/>
    <path class="st2" d="M161.77 78.39s11.23 75.44-32.84 87.06c-31.3 8.25-76.01-20.68-73.47-69.62C58 46.88 89.27 25.41 111.33 26.56c22.06 1.14 45.17 17.88 50.44 51.83z"/>
    <path class="st3" d="M129.47 109.95c1.74 1.46 3.3 3.01 4.96 4.41 1.64 1.42 3.34 2.71 5.17 3.77l.99.57-.71.84c-.5.59-1.04 1.15-1.56 1.72-.51.58-1.07 1.12-1.61 1.68-.56.54-1.1 1.09-1.69 1.62a29.4 29.4 0 01-1.79 1.53c.37-.7.76-1.38 1.18-2.04.4-.67.85-1.31 1.28-1.96.45-.63.88-1.28 1.35-1.89.47-.62.92-1.25 1.41-1.85l.27 1.41c-2.08-1.06-3.89-2.56-5.42-4.23-1.52-1.7-2.83-3.55-3.83-5.58z"/>
    <path class="st4" d="M150.42 103.08c-.28 5.33-2.88 9.54-5.81 9.38-2.93-.15-5.08-4.6-4.8-9.93.28-5.33 2.88-9.54 5.81-9.38 2.92.15 5.07 4.6 4.8 9.93zM100.37 104.95c-.28 5.33-2.88 9.54-5.81 9.38-2.93-.15-5.08-4.6-4.81-9.93.28-5.33 2.88-9.54 5.81-9.38 2.94.15 5.09 4.6 4.81 9.93z"/>
    <path class="st2" d="M57.97 116.78s.3-26.19-13.85-20.76-2.15 40.55 18.7 32.38l-4.85-11.62z"/>
    <path class="st5" d="M43.11 107.98s2.89-11.06 7.57-4.74 2.66 8.08 2.66 8.08-6.2 8.08 2.47 11.8c0-.01-12.57 4.48-12.7-15.14z"/>
    <path class="st0" d="M127.5 23.89s-2.5 62.72-72.28 76.82c0 0-3.82-12.21-14.77-1.94-4.93-15.6-18.39-55.23 3.9-75.69 22.28-20.46 75.21-39.99 83.15.81z"/>
    <g>
      <path class="st6" d="M79.62 82.37c.9-2.7 2.66-5.09 4.86-6.99 2.22-1.89 4.93-3.31 7.9-3.91 2.96-.61 6.18-.31 8.92 1 2.74 1.29 4.9 3.51 6.07 6.08-2.38-1.54-4.7-2.71-7.09-3.26-2.38-.57-4.78-.55-7.16-.08-2.37.48-4.7 1.39-6.94 2.62-2.23 1.22-4.36 2.76-6.56 4.54z"/>
    </g>
    <g>
      <path class="st6" d="M131.59 76.06c1.02-2.57 3.18-4.73 5.76-6.04 2.59-1.32 5.61-1.84 8.53-1.53 2.92.3 5.76 1.45 8.02 3.27 2.26 1.81 3.93 4.3 4.53 7-1.99-1.91-4-3.42-6.17-4.49a19.787 19.787 0 00-6.78-1.98c-2.33-.25-4.71-.09-7.04.52-2.34.59-4.59 1.68-6.85 3.25z"/>
    </g>
    <g>
      <path class="st7" d="M101.76 137.46s25.52-10.14 34.45 0h-34.45zM101.76 137.46s8.45 16.62 21.53 15.6c15.24-1.19 12.92-15.6 12.92-15.6h-34.45z"/>
      <path class="st8" d="M101.76 137.46h34.45s-7.59 22.81-34.45 0z"/>
    </g>
    <path class="st8" d="M61.61 128.07a6.61 6.61 0 11-13.222-.002 6.61 6.61 0 0113.222.002z"/>
  </g>
  <g class="head6">
    <path class="st0" d="M28.35 78.41s-16.51 1.27-13.97 23.5-22.79 5.77-11.43 41.91c6.98 22.23 26.04 15.24 38.74 22.23 7.97 4.38 10.16 27.94 43.18 23.5s32.38-5.28 52.71-5.72c29.85-.63 25.36-12.93 36.2-28.57 5.71-8.26 38.1-24.13 14.61-54.61-19.74-25.62 1.27-90.81-71.12-77.47-72.41 13.31-88.92 55.23-88.92 55.23z"/>
    <path class="st1" d="M121.01 183.17l-.16-35.49H92.08l1.85 40.78c.96 9.5 10.52 11.35 14.58 11.35 8.04.01 11.75-3.09 12.5-16.64z"/>
    <path class="st2" d="M161.03 78.39s11.23 75.45-32.84 87.06c-31.3 8.25-76-20.68-73.46-69.62 2.54-48.95 33.81-70.42 55.87-69.27 22.05 1.14 45.15 17.88 50.43 51.83z"/>
    <path class="st3" d="M128.72 109.95c1.74 1.46 3.3 3.01 4.96 4.41 1.64 1.42 3.34 2.71 5.17 3.77l.99.57-.71.84c-.5.59-1.04 1.15-1.56 1.72-.51.58-1.07 1.12-1.61 1.68-.56.54-1.1 1.09-1.69 1.62a29.4 29.4 0 01-1.79 1.53c.37-.7.76-1.38 1.18-2.04.4-.67.85-1.31 1.28-1.96.45-.63.88-1.28 1.35-1.89.47-.62.92-1.25 1.41-1.85l.27 1.41c-2.08-1.06-3.89-2.56-5.42-4.23-1.52-1.7-2.82-3.55-3.83-5.58z"/>
    <path class="st2" d="M57.22 116.78s.3-26.19-13.85-20.76-2.15 40.55 18.7 32.38l-4.85-11.62z"/>
    <path class="st5" d="M42.36 107.98s2.89-11.06 7.57-4.74c4.68 6.31 2.66 8.08 2.66 8.08s-6.2 8.08 2.47 11.8c0-.01-12.56 4.48-12.7-15.14z"/>
    <path class="st0" d="M126.75 23.89s-2.5 62.72-72.28 76.82c0 0-8.96-11.45-23.24-6.17-4.93-15.6-9.92-51 12.37-71.46 22.29-20.46 75.21-39.99 83.15.81z"/>
    <path class="st6" d="M109.71 81.88c-1.68 2.29-4.08 4.03-6.76 5.17-2.69 1.13-5.7 1.65-8.72 1.31-3-.32-5.98-1.59-8.19-3.67-2.22-2.07-3.6-4.84-3.93-7.64 1.8 2.19 3.65 4.01 5.76 5.27 2.09 1.26 4.39 1.98 6.79 2.26 2.41.27 4.9.1 7.41-.38 2.51-.47 5.01-1.29 7.64-2.32zM130.84 81.15c1.02-2.57 3.18-4.73 5.76-6.04 2.59-1.32 5.61-1.84 8.53-1.53 2.92.3 5.76 1.45 8.02 3.27 2.26 1.81 3.93 4.3 4.53 7-1.99-1.91-4-3.42-6.17-4.49a19.787 19.787 0 00-6.78-1.98c-2.33-.25-4.71-.09-7.04.52-2.33.59-4.59 1.68-6.85 3.25z"/>
    <path class="st7" d="M102.17 143.17s23.1 9.18 31.18 0h-31.18zM102.17 143.17s7.65-15.04 19.49-14.12c13.8 1.08 11.69 14.12 11.69 14.12h-31.18z"/>
    <path class="st8" d="M102.17 143.17h31.18s-6.86-20.65-31.18 0z"/>
    <g>
      <path class="st4" d="M110.71 98.67c-1.84.63-3.68.96-5.52 1.2-1.84.22-3.68.33-5.52.33-1.84 0-3.68-.1-5.52-.33-1.84-.24-3.68-.57-5.52-1.2 1.84-.64 3.68-.97 5.52-1.2a46.456 46.456 0 0111.04 0c1.85.24 3.68.57 5.52 1.2z"/>
      <path class="st4" d="M98.56 98.97c3 0 5.92-.41 8.66-1.21.02.3.05.59.05.9 0 5.09-2.27 9.22-5.06 9.22-2.76 0-4.99-4.01-5.05-9 .46.04.92.09 1.4.09z"/>
      <g>
        <path class="st4" d="M152.72 97.82c-1.84.63-3.68.96-5.52 1.2-1.84.22-3.68.33-5.52.33-1.84 0-3.68-.1-5.52-.33-1.84-.24-3.68-.57-5.52-1.2 1.84-.64 3.68-.97 5.52-1.2a46.456 46.456 0 0111.04 0c1.84.24 3.68.57 5.52 1.2z"/>
        <path class="st4" d="M140.56 98.12c3 0 5.92-.41 8.66-1.21.02.3.05.59.05.9 0 5.09-2.27 9.22-5.06 9.22-2.76 0-4.99-4.01-5.05-9 .47.04.93.09 1.4.09z"/>
      </g>
    </g>
    <path class="st8" d="M62.37 128.07a6.61 6.61 0 11-13.222-.002 6.61 6.61 0 0113.222.002z"/>
  </g>
  <g class="head7">
    <path class="st0" d="M29.72 78.59s-16.51 1.27-13.97 23.5c2.54 22.22-22.79 5.77-11.43 41.91 6.99 22.22 26.04 15.24 38.74 22.22 7.97 4.38 10.16 27.94 43.18 23.5 33.02-4.44 32.38-5.28 52.71-5.71 29.84-.63 25.36-12.93 36.2-28.58 5.72-8.26 38.1-24.13 14.61-54.61-19.74-25.61 1.27-90.81-71.12-77.47-72.41 13.33-88.92 55.24-88.92 55.24z"/>
    <path class="st1" d="M122.38 183.35l-.16-35.49H93.45l1.85 40.78c.96 9.5 10.52 11.35 14.58 11.35 8.04.01 11.75-3.08 12.5-16.64z"/>
    <path class="st2" d="M162.4 78.58s11.23 75.44-32.84 87.06c-31.3 8.25-76-20.68-73.47-69.62 2.54-48.95 33.81-70.42 55.87-69.27 22.06 1.13 45.17 17.87 50.44 51.83z"/>
    <path class="st3" d="M130.1 110.13c1.74 1.46 3.3 3.01 4.96 4.41 1.64 1.42 3.34 2.71 5.17 3.77l.99.57-.71.84c-.5.59-1.04 1.15-1.56 1.72-.51.58-1.07 1.12-1.61 1.68-.56.54-1.1 1.09-1.69 1.62a29.4 29.4 0 01-1.79 1.53c.37-.7.76-1.38 1.18-2.04.4-.67.85-1.31 1.28-1.96.45-.63.88-1.28 1.35-1.89.47-.62.92-1.25 1.41-1.85l.27 1.41c-2.08-1.06-3.89-2.56-5.42-4.23-1.53-1.7-2.83-3.55-3.83-5.58z"/>
    <path class="st2" d="M58.59 116.97s.3-26.19-13.85-20.76-2.15 40.55 18.7 32.38l-4.85-11.62z"/>
    <path class="st5" d="M43.73 108.16s2.89-11.06 7.57-4.74c4.68 6.31 2.66 8.08 2.66 8.08s-6.2 8.09 2.47 11.8c.01 0-12.56 4.48-12.7-15.14z"/>
    <path class="st0" d="M128.13 24.07s-2.5 62.72-72.28 76.82c0 0-8.96-11.45-23.24-6.17-4.94-15.6-9.92-51 12.37-71.46s75.21-39.99 83.15.81z"/>
    <path class="st6" d="M80.25 87.65c.9-2.69 2.66-5.09 4.86-6.99 2.22-1.89 4.93-3.31 7.9-3.91 2.96-.61 6.18-.31 8.92 1 2.74 1.29 4.9 3.51 6.07 6.08-2.38-1.54-4.7-2.71-7.09-3.26-2.38-.57-4.78-.55-7.16-.08-2.37.48-4.7 1.39-6.94 2.62-2.23 1.22-4.37 2.75-6.56 4.54zM132.21 81.33c1.02-2.57 3.18-4.73 5.76-6.04 2.59-1.32 5.61-1.84 8.53-1.53 2.92.3 5.76 1.45 8.02 3.27 2.26 1.81 3.93 4.3 4.53 7-1.99-1.91-4-3.42-6.17-4.49a19.787 19.787 0 00-6.78-1.98c-2.33-.25-4.71-.09-7.04.52-2.33.59-4.58 1.68-6.85 3.25z"/>
    <path class="st7" d="M115.26 141.53s-1.97 12.83 10.03 10.67c9.61-1.73 4.17-11.09 4.17-11.09l-14.2.42z"/>
    <path class="st7" d="M115.31 143.62s-2.02-12.78 7.66-12.17c9.68.61 6.31 11.58 6.31 11.58l-13.97.59z"/>
    <path d="M129.69 141.24c.59 4.07-2.15 7.45-6.14 7.54-3.98.09-7.7-3.14-8.29-7.22-.59-4.07 2.15-7.45 6.14-7.54 3.99-.08 7.7 3.15 8.29 7.22z" fill="#d8a3a3"/>
    <path d="M118.36 140.5c-1.23.21-2.25.57-3.1 1.03-.57-4.06 2.17-7.42 6.14-7.51 3.98-.09 7.7 3.14 8.29 7.22.34 2.36-.45 4.45-1.94 5.84.57-3.63-3.06-7.67-9.39-6.58z" fill="#723838"/>
    <g>
      <path class="st4" d="M107.2 101.52c.33 2.78.01 5.64-1.12 8.38-.58 1.36-1.44 2.71-2.76 3.75-.66.52-1.44.92-2.27 1.18-.84.25-1.71.3-2.54.26-.84-.05-1.6-.31-2.38-.51-.75-.35-1.52-.66-2.15-1.22-1.31-1.03-2.22-2.45-2.7-3.9-.9-2.92-.7-5.86.22-8.5.34 2.75.87 5.41 2 7.57 1.15 2.14 2.99 3.35 5.24 3.52 1.06.08 2-.15 2.88-.73.88-.57 1.67-1.48 2.34-2.53 1.36-2.11 2.32-4.65 3.24-7.27zM151.26 99.55c.62 2.73.6 5.61-.26 8.45-.44 1.41-1.2 2.85-2.44 4-1.25 1.15-3.07 1.79-4.72 1.73l-.62-.03-.6-.1c-.4-.08-.8-.13-1.19-.23-.77-.29-1.55-.57-2.22-1.07-1.37-.93-2.38-2.25-3-3.64-1.17-2.81-1.29-5.75-.65-8.47.63 2.7 1.44 5.28 2.77 7.33 1.36 2.02 3.28 3.13 5.54 3.15a4.39 4.39 0 002.82-.88c.82-.63 1.53-1.59 2.09-2.69 1.14-2.23 1.83-4.86 2.48-7.55z"/>
    </g>
    <path class="st8" d="M63.75 128.25a6.61 6.61 0 11-13.222-.002 6.61 6.61 0 0113.222.002z"/>
  </g>
  <g class="head8">
    <path class="st0" d="M34.8 55.14s1.04 38.08 11.77 49.16c10.73 11.08 3.46-15.23 3.46-15.23L34.8 55.14z"/>
    <path class="st1" d="M123.28 182.63l-.17-36.65H93.4l1.91 42.12c1 9.81 10.86 11.72 15.05 11.72 8.31 0 12.14-3.2 12.92-17.19z"/>
    <path class="st2" d="M164.6 74.43s11.6 77.91-33.91 89.9c-32.32 8.52-78.49-21.35-75.87-71.9 2.62-50.55 34.92-72.72 57.69-71.54 22.78 1.18 46.64 18.47 52.09 53.54z"/>
    <path class="st3" d="M131.24 107.01c1.79 1.5 3.41 3.1 5.13 4.55 1.7 1.46 3.45 2.8 5.34 3.89l1.02.59-.74.87c-.52.61-1.07 1.19-1.61 1.78-.53.6-1.11 1.16-1.66 1.73-.58.56-1.14 1.13-1.74 1.67-.59.55-1.2 1.08-1.85 1.58.38-.72.78-1.42 1.21-2.11.42-.69.87-1.35 1.32-2.02.47-.65.91-1.32 1.4-1.95.49-.64.95-1.29 1.45-1.91l.28 1.45c-1.07-.54-2.07-1.21-3.01-1.94-.94-.74-1.78-1.57-2.59-2.42-1.57-1.75-2.91-3.66-3.95-5.76z"/>
    <path class="st4" d="M152.87 99.92c-.29 5.51-2.97 9.85-6 9.69-3.03-.16-5.25-4.75-4.96-10.26.29-5.51 2.97-9.85 6-9.69 3.03.16 5.25 4.75 4.96 10.26zM101.2 101.85c-.29 5.51-2.97 9.85-6 9.69-3.03-.16-5.25-4.75-4.96-10.26.29-5.51 2.97-9.85 6-9.69s5.24 4.75 4.96 10.26z"/>
    <path class="st2" d="M57.4 114.07s.31-27.05-14.31-21.44c-14.62 5.61-2.22 41.87 19.31 33.44l-5-12z"/>
    <path class="st5" d="M42.05 104.98s2.98-11.42 7.82-4.9c4.83 6.52 2.75 8.34 2.75 8.34s-6.4 8.35 2.55 12.19c0 0-12.97 4.63-13.12-15.63z"/>
    <g>
      <path class="st6" d="M79.77 78.53c.93-2.78 2.75-5.25 5.02-7.21 2.29-1.95 5.09-3.41 8.16-4.03 3.05-.63 6.39-.32 9.21 1.03 2.83 1.34 5.06 3.62 6.27 6.28-2.46-1.59-4.85-2.8-7.32-3.37-2.46-.59-4.94-.57-7.39-.09-2.45.49-4.85 1.44-7.17 2.7-2.32 1.27-4.52 2.85-6.78 4.69z"/>
    </g>
    <g>
      <path class="st6" d="M133.43 72.01c1.06-2.66 3.28-4.88 5.95-6.24 2.68-1.37 5.79-1.9 8.81-1.58 3.02.31 5.95 1.49 8.28 3.37 2.33 1.87 4.05 4.44 4.68 7.23-2.06-1.97-4.13-3.53-6.37-4.64a20.632 20.632 0 00-7-2.05c-2.41-.26-4.86-.09-7.27.54-2.42.63-4.75 1.75-7.08 3.37z"/>
    </g>
    <g>
      <path class="st7" d="M102.63 135.42s26.35-10.47 35.57 0h-35.57z"/>
      <path class="st7" d="M102.63 135.42s8.73 17.17 22.23 16.11c15.74-1.23 13.34-16.11 13.34-16.11h-35.57z"/>
      <path class="st8" d="M102.63 135.42h35.57s-7.83 23.56-35.57 0z"/>
    </g>
    <path class="st8" d="M61.16 125.72c0 3.77-3.06 6.82-6.82 6.82-3.77 0-6.82-3.06-6.82-6.82 0-3.77 3.06-6.82 6.82-6.82 3.77 0 6.82 3.06 6.82 6.82z"/>
    <path class="st0" d="M93.75 0s55.16-.71 74.96 43.14c19.8 43.84-21.92 4.95-21.92 4.95s21.21 37.48-21.92 2.83c0 0 9.19 28.99-20.51.71 0 0-5.66 31.11-22.63 3.54 0 0-7.07 43.84-19.09 10.61 0 0 4.28 44.89-4.24 39.6-8.52-5.29-33.88-31.23-19.09-68.59C52.74 2.83 93.75 0 93.75 0z"/>
  </g>
  <g class="head9">
    <path class="st0" d="M108.16 176.83s-47.93 0-69.16 6.85c0 0-25.34-89.7-8.22-134.89 10.05-26.54 77.38 128.04 77.38 128.04zM166.36 180.25c-16.81-1.86-37.29-4.57-54.09-4.11-2.13-25.94-.12-53.9-3.21-79.76-2.67-22.4-3.73-46.83-13.9-67.38 7.08-2.27 14.86-4.26 23.44-5.84 72.39-13.34 60.54 63.81 60.77 96.15.21 29.38-12.67 60.98-13.01 60.94z"/>
    <path class="st1" d="M122.37 183.17l-.16-35.49H93.44l1.85 40.78c.96 9.5 10.52 11.35 14.58 11.35 8.03.01 11.75-3.08 12.5-16.64z"/>
    <path class="st2" d="M162.39 78.39s11.23 75.45-32.84 87.06c-31.3 8.25-76.01-20.68-73.47-69.62 2.54-48.95 33.81-70.42 55.87-69.27 22.06 1.14 45.16 17.88 50.44 51.83z"/>
    <path class="st3" d="M130.08 109.95c1.74 1.46 3.3 3.01 4.96 4.41 1.64 1.42 3.34 2.71 5.17 3.77l.99.57-.71.84c-.5.59-1.04 1.15-1.56 1.72-.51.58-1.07 1.12-1.61 1.68-.56.54-1.1 1.09-1.69 1.62a29.4 29.4 0 01-1.79 1.53c.37-.7.76-1.38 1.18-2.04.4-.67.85-1.31 1.28-1.96.45-.63.88-1.28 1.35-1.89.47-.62.92-1.25 1.41-1.85l.27 1.41c-2.08-1.06-3.89-2.56-5.42-4.23-1.52-1.7-2.83-3.55-3.83-5.58z"/>
    <path class="st4" d="M151.03 103.08c-.28 5.33-2.88 9.54-5.81 9.38-2.93-.15-5.08-4.6-4.8-9.93.28-5.33 2.88-9.54 5.81-9.38 2.92.15 5.08 4.6 4.8 9.93zM100.99 104.95c-.28 5.33-2.88 9.54-5.81 9.38-2.93-.15-5.08-4.6-4.81-9.93.28-5.33 2.88-9.54 5.81-9.38 2.93.15 5.08 4.6 4.81 9.93z"/>
    <path class="st2" d="M58.58 116.78s.3-26.19-13.85-20.76-2.15 40.55 18.7 32.38l-4.85-11.62z"/>
    <path class="st5" d="M43.72 107.98s2.89-11.06 7.57-4.74c4.68 6.31 2.66 8.08 2.66 8.08s-6.2 8.08 2.47 11.8c0-.01-12.56 4.48-12.7-15.14z"/>
    <path class="st0" d="M128.11 23.89s-2.5 62.72-72.28 76.82c0 0-8.96-11.45-23.24-6.17-4.93-15.6-9.92-51 12.37-71.46 22.29-20.46 75.21-39.99 83.15.81z"/>
    <g>
      <path class="st6" d="M80.24 82.37c.9-2.7 2.66-5.09 4.86-6.99 2.22-1.89 4.93-3.31 7.9-3.91 2.96-.61 6.18-.31 8.92 1 2.74 1.29 4.9 3.51 6.07 6.08-2.38-1.54-4.7-2.71-7.09-3.26-2.38-.57-4.78-.55-7.16-.09-2.37.48-4.7 1.39-6.94 2.62-2.24 1.23-4.37 2.77-6.56 4.55z"/>
    </g>
    <g>
      <path class="st6" d="M132.2 76.06c1.02-2.57 3.18-4.73 5.76-6.04 2.59-1.32 5.61-1.84 8.53-1.53 2.92.3 5.76 1.45 8.02 3.27 2.26 1.81 3.93 4.3 4.53 7-1.99-1.91-4-3.42-6.17-4.49a19.787 19.787 0 00-6.78-1.98c-2.33-.25-4.71-.09-7.04.52-2.34.59-4.59 1.68-6.85 3.25z"/>
    </g>
    <g>
      <path class="st7" d="M102.37 137.46s25.52-10.14 34.45 0h-34.45zM102.37 137.46s8.45 16.62 21.53 15.6c15.24-1.19 12.92-15.6 12.92-15.6h-34.45z"/>
      <path class="st8" d="M102.37 137.46h34.45s-7.58 22.81-34.45 0z"/>
    </g>
    <path class="st8" d="M62.22 128.07a6.61 6.61 0 11-13.222-.002 6.61 6.61 0 0113.222.002z"/>
  </g>
  <g class="head10">
    <path class="st1" d="M122.77 183.44l-.16-34.91h-28.3l1.82 40.12c.95 9.34 10.35 11.17 14.34 11.17 7.91 0 11.56-3.04 12.3-16.38z"/>
    <path class="st2" d="M162.14 80.36s11.05 74.22-32.3 85.64c-30.79 8.11-74.77-20.34-72.27-68.5 2.5-48.15 33.26-69.28 54.96-68.15 21.69 1.14 44.42 17.61 49.61 51.01z"/>
    <path class="st3" d="M130.36 111.41c1.71 1.43 3.25 2.96 4.88 4.34 1.61 1.4 3.28 2.67 5.08 3.71l.95.55-.69.83c-.49.59-1.02 1.13-1.53 1.7-.51.57-1.06 1.1-1.58 1.65-1.09 1.07-2.2 2.13-3.42 3.1.72-1.38 1.56-2.66 2.41-3.93.45-.62.87-1.26 1.33-1.86.46-.6.9-1.23 1.39-1.81l.27 1.38c-2.04-1.04-3.82-2.51-5.34-4.16-1.48-1.69-2.77-3.5-3.75-5.5z"/>
    <path class="st4" d="M150.96 104.65c-.27 5.25-2.83 9.38-5.71 9.23-2.88-.15-5-4.53-4.73-9.77.27-5.25 2.83-9.38 5.71-9.23 2.89.15 5.01 4.52 4.73 9.77zM101.73 106.49c-.27 5.25-2.83 9.38-5.71 9.23-2.88-.15-5-4.53-4.73-9.77.27-5.25 2.83-9.38 5.71-9.23 2.89.15 5.01 4.52 4.73 9.77z"/>
    <path class="st2" d="M60.01 118.13s.3-25.76-13.63-20.42c-13.93 5.34-2.11 39.89 18.4 31.85l-4.77-11.43z"/>
    <path class="st5" d="M45.39 109.47s2.84-10.88 7.45-4.67c4.61 6.21 2.62 7.95 2.62 7.95s-6.1 7.95 2.43 11.61c0 0-12.36 4.41-12.5-14.89z"/>
    <g>
      <path class="st7" d="M103.1 138.47s25.1-9.97 33.89 0H103.1zM103.1 138.47s8.32 16.35 21.18 15.35c15-1.17 12.71-15.35 12.71-15.35H103.1z"/>
      <path class="st8" d="M103.1 138.47h33.89s-7.47 22.44-33.89 0z"/>
    </g>
    <path class="st0" d="M52.2 37.76c4.72-30.31 39.07-43.11 75.45-35.7 36.38 7.41 43.79 40.42 43.79 40.42C161.33 28.33 129 11.49 129 11.49c45.81 24.92 45.13 59.95 45.13 59.95-30.99 9.43-54.56-10.1-54.56-10.1l14.82 26.95c-28.97.66-49.18-33.69-49.18-33.69-6.74 53.89-26.95 51.87-26.95 51.87C54.9 93 46.38 97.71 46.38 97.71s-11.02-12.8-11.7-37.72C34.01 35.06 52.2 37.76 52.2 37.76z"/>
    <path class="st8" d="M63.6 129.23a6.5 6.5 0 11-13 0 6.5 6.5 0 0113 0z"/>
    <g>
      <path class="st6" d="M81.32 84.28c.88-2.65 2.62-5 4.78-6.87 2.18-1.86 4.85-3.25 7.77-3.84 2.91-.6 6.08-.3 8.78.99 2.7 1.27 4.82 3.45 5.97 5.98-2.35-1.52-4.62-2.67-6.97-3.21-2.34-.56-4.71-.54-7.04-.08-2.33.47-4.62 1.37-6.83 2.57-2.21 1.19-4.3 2.7-6.46 4.46z"/>
    </g>
    <g>
      <path class="st6" d="M132.44 78.07c1.01-2.53 3.12-4.65 5.67-5.94 2.55-1.3 5.52-1.81 8.39-1.51 2.87.3 5.67 1.42 7.89 3.21 2.22 1.78 3.86 4.23 4.45 6.89-1.96-1.88-3.93-3.36-6.07-4.42-2.12-1.06-4.37-1.7-6.67-1.95-2.29-.24-4.63-.09-6.92.51-2.3.59-4.51 1.66-6.74 3.21z"/>
    </g>
  </g>
  <g class="head11">
    <path class="st0" d="M30.34 78.41s-16.51 1.27-13.97 23.5c2.54 22.22-22.79 5.77-11.43 41.91 6.98 22.23 26.04 15.24 38.74 22.23 7.97 4.38 10.16 27.94 43.18 23.5 33.02-4.45 32.38-5.28 52.71-5.72 29.85-.63 25.36-12.93 36.2-28.58 5.72-8.26 38.1-24.13 14.61-54.61-19.74-25.62 1.27-90.81-71.12-77.47-72.41 13.32-88.92 55.24-88.92 55.24z"/>
    <path class="st1" d="M123.01 183.17l-.16-35.49H94.08l1.85 40.78c.96 9.5 10.52 11.35 14.58 11.35 8.03.01 11.75-3.09 12.5-16.64z"/>
    <path class="st2" d="M163.03 78.39s11.23 75.45-32.84 87.06c-31.3 8.25-76-20.68-73.47-69.62 2.54-48.95 33.81-70.42 55.87-69.27 22.06 1.14 45.16 17.88 50.44 51.83z"/>
    <path class="st3" d="M130.72 109.95c1.74 1.46 3.3 3.01 4.96 4.41 1.64 1.42 3.34 2.71 5.17 3.77l.99.57-.71.84c-.5.59-1.04 1.15-1.56 1.72-.51.58-1.07 1.12-1.61 1.68-.56.54-1.1 1.09-1.69 1.62a29.4 29.4 0 01-1.79 1.53c.37-.7.76-1.38 1.18-2.04.4-.67.85-1.31 1.28-1.96.45-.63.88-1.28 1.35-1.89.47-.62.92-1.25 1.41-1.85l.27 1.41c-2.08-1.06-3.89-2.56-5.42-4.23-1.52-1.7-2.82-3.55-3.83-5.58z"/>
    <path class="st4" d="M151.67 103.08c-.28 5.33-2.88 9.54-5.81 9.38-2.93-.15-5.08-4.6-4.81-9.93.28-5.33 2.88-9.54 5.81-9.38 2.94.15 5.09 4.6 4.81 9.93zM101.63 104.95c-.28 5.33-2.88 9.54-5.81 9.38-2.93-.15-5.08-4.6-4.81-9.93.28-5.33 2.88-9.54 5.81-9.38 2.93.15 5.09 4.6 4.81 9.93z"/>
    <path class="st2" d="M59.22 116.78s.3-26.19-13.85-20.76-2.15 40.55 18.7 32.38l-4.85-11.62z"/>
    <path class="st5" d="M44.36 107.98s2.89-11.06 7.57-4.74c4.68 6.31 2.66 8.08 2.66 8.08s-6.2 8.08 2.47 11.8c0-.01-12.56 4.48-12.7-15.14z"/>
    <path class="st0" d="M128.75 23.89s-2.5 62.72-72.28 76.82c0 0-8.96-11.45-23.24-6.17-4.94-15.6-9.92-50.99 12.37-71.46 22.29-20.46 75.21-39.99 83.15.81z"/>
    <g>
      <path class="st6" d="M107.15 77.6c-.39 2.81-1.69 5.48-3.51 7.76-1.83 2.26-4.25 4.15-7.06 5.28-2.8 1.13-6.03 1.43-8.96.64-2.93-.77-5.46-2.56-7.08-4.87 2.63 1.08 5.11 1.81 7.56 1.92 2.44.13 4.8-.33 7.05-1.22 2.25-.9 4.37-2.23 6.35-3.84 2-1.61 3.82-3.51 5.65-5.67z"/>
    </g>
    <g>
      <path class="st6" d="M158.58 86.57c-1.74 2.15-4.43 3.57-7.29 4.06-2.87.49-5.9.1-8.6-1.07-2.7-1.15-5.07-3.09-6.69-5.5-1.62-2.4-2.47-5.27-2.25-8.03 1.34 2.42 2.8 4.45 4.56 6.12 1.74 1.67 3.73 2.97 5.88 3.9 2.15.93 4.47 1.48 6.87 1.59 2.41.13 4.89-.24 7.52-1.07z"/>
    </g>
    <g>
      <path class="st7" d="M107.56 139.09s21.45-9.81 28.96 0h-28.96zM107.56 139.09s7.11 7.87 18.1 7.39c12.82-.56 10.86-7.39 10.86-7.39h-28.96z"/>
      <path d="M137.92 138.89c-2.66.87-5.4 1.44-8.16 1.88-2.76.44-5.56.68-8.36.72-2.8.02-5.63-.11-8.4-.68-2.75-.55-5.52-1.44-7.81-3.07 2.58 1.08 5.28 1.6 7.99 1.93 2.71.33 5.46.39 8.2.35 5.5-.05 10.99-.61 16.54-1.13z" fill="#5b403b"/>
    </g>
    <path class="st8" d="M63.33 129.72a6.61 6.61 0 11-13.222-.002 6.61 6.61 0 0113.222.002z"/>
  </g>
  <g class="head12">
    <path class="st0" d="M30.34 78.41s-16.51 1.27-13.97 23.5c2.54 22.22-22.79 5.77-11.43 41.91 6.99 22.23 26.04 15.24 38.74 22.23 7.97 4.38 10.16 27.94 43.18 23.5 33.02-4.45 32.38-5.28 52.71-5.72 29.85-.63 25.36-12.93 36.2-28.58 5.72-8.26 38.1-24.13 14.61-54.61-19.74-25.62 1.27-90.81-71.12-77.47-72.41 13.32-88.92 55.24-88.92 55.24z"/>
    <path class="st1" d="M123.01 183.17l-.16-35.49H94.08l1.85 40.78c.96 9.5 10.52 11.35 14.58 11.35 8.03.01 11.75-3.09 12.5-16.64z"/>
    <path class="st2" d="M163.03 78.39s11.23 75.45-32.84 87.06c-31.3 8.25-76-20.68-73.47-69.62 2.54-48.95 33.81-70.42 55.87-69.27 22.06 1.14 45.16 17.88 50.44 51.83z"/>
    <path class="st3" d="M130.72 109.95c1.74 1.46 3.3 3.01 4.96 4.41 1.64 1.42 3.34 2.71 5.17 3.77l.99.57-.71.84c-.5.59-1.04 1.15-1.56 1.72-.51.58-1.07 1.12-1.61 1.68-.56.54-1.1 1.09-1.69 1.62a29.4 29.4 0 01-1.79 1.53c.37-.7.76-1.38 1.18-2.04.4-.67.85-1.31 1.28-1.96.45-.63.88-1.28 1.35-1.89.47-.62.92-1.25 1.41-1.85l.27 1.41c-2.08-1.06-3.89-2.56-5.42-4.23-1.52-1.7-2.82-3.55-3.83-5.58z"/>
    <path class="st4" d="M151.67 103.08c-.28 5.33-2.88 9.54-5.81 9.38-2.93-.15-5.08-4.6-4.81-9.93.28-5.33 2.88-9.54 5.81-9.38 2.94.15 5.09 4.6 4.81 9.93z"/>
    <path class="st2" d="M59.22 116.78s.3-26.19-13.85-20.76c-14.16 5.43-2.15 40.55 18.7 32.38l-4.85-11.62z"/>
    <path class="st5" d="M44.36 107.98s2.89-11.06 7.57-4.74c4.68 6.31 2.66 8.08 2.66 8.08s-6.2 8.08 2.47 11.8c0-.01-12.56 4.48-12.7-15.14z"/>
    <path class="st0" d="M128.75 23.89s-2.5 62.72-72.28 76.82c0 0-8.96-11.45-23.24-6.17-4.94-15.6-9.92-51 12.37-71.46 22.29-20.46 75.21-39.99 83.15.81z"/>
    <path class="st6" d="M132.84 81.15c1.02-2.57 3.18-4.73 5.76-6.04 2.59-1.32 5.61-1.84 8.53-1.53 2.92.3 5.76 1.45 8.02 3.27 2.26 1.81 3.93 4.3 4.53 7-1.99-1.91-4-3.42-6.17-4.49a19.787 19.787 0 00-6.78-1.98c-2.33-.25-4.71-.09-7.04.52-2.33.59-4.59 1.68-6.85 3.25z"/>
    <path class="st7" d="M106.27 136.29s26.07-10.36 35.2 0h-35.2zM106.27 136.29s8.64 16.98 22 15.94c15.57-1.21 13.2-15.94 13.2-15.94h-35.2z"/>
    <path class="st8" d="M106.27 136.29h35.2s-7.75 23.31-35.2 0z"/>
    <path class="st6" d="M116.2 89.65c-1.09.81-2.61 1.1-4.06.94-1.47-.16-2.81-.74-4.02-1.39-2.42-1.32-4.41-2.97-6.4-4.22-1.99-1.26-3.87-2.09-6.01-1.95-2.16.11-4.47 1.18-6.89 2.34 1.35-2.29 3.39-4.38 6.33-5.28 1.46-.44 3.1-.44 4.59-.09 1.5.35 2.83 1.02 4.02 1.77 2.37 1.52 4.19 3.38 6.03 4.97 1.85 1.58 3.66 2.95 6.41 2.91z"/>
    <g>
      <path class="st4" d="M106.46 103.06c.39.85.43 1.87.13 2.86-.31.99-1.06 1.89-1.97 2.43-.45.31-.93.46-1.42.66-.48.12-.99.27-1.47.32-.98.14-1.94.11-2.89.03-1.86-.18-3.79-.7-5.44-1.84-.82-.57-1.53-1.31-2.02-2.18-.46-.88-.72-1.87-.52-2.8.75 1.69 2.09 2.65 3.53 3.24 1.45.6 3.05.88 4.7 1.04 1.62.13 3.28.24 4.62-.25.67-.23 1.3-.59 1.76-1.2.5-.61.82-1.41.99-2.31z"/>
    </g>
    <path class="st8" d="M63.1 129.72a6.61 6.61 0 11-13.222-.002 6.61 6.61 0 0113.222.002z"/>
  </g>
</svg>
